<svg width="23" height="23" viewBox="0 0 28 29" fill="none" xmlns="http://www.w3.org/2000/svg">
<path opacity="0.1" d="M14 4.5457C13.6291 4.5457 13.2583 4.47341 12.9102 4.32881C12.1128 3.99747 11.0223 3.625 10.15 3.625C9.03727 3.625 7.56939 4.23115 6.80766 4.58479C6.4703 4.74142 6.10615 4.82745 5.73686 4.84588C3.91171 4.93689 3.5 5.55352 3.5 7.73327V22.475C3.5 24.6547 3.91171 25.2713 5.73684 25.3624C6.10614 25.3808 6.47031 25.2832 6.80769 25.1264C7.56941 24.7729 9.03728 24.1667 10.15 24.1667C11.0222 24.1667 12.1127 24.5392 12.9102 24.8705C13.2582 25.0152 13.6291 25.0874 14 25.0874V4.5457Z" fill="#323232"/>
<path d="M3.5 7.73327C3.5 5.55352 3.91171 4.93689 5.73686 4.84588C6.10615 4.82745 6.4703 4.74142 6.80767 4.58479C7.56939 4.23115 9.03727 3.625 10.15 3.625C11.0223 3.625 12.1128 3.99747 12.9102 4.32881C13.6064 4.61801 14.3936 4.61801 15.0898 4.32881C15.8872 3.99747 16.9777 3.625 17.85 3.625C18.9628 3.625 20.4307 4.23115 21.1924 4.58479C21.5297 4.74142 21.8939 4.82745 22.2632 4.84588C24.0883 4.93689 24.5 5.55352 24.5 7.73327V22.475C24.5 24.6547 24.0883 25.2713 22.2632 25.3624C21.8939 25.3808 21.5297 25.2832 21.1923 25.1264C20.4306 24.7729 18.9628 24.1667 17.85 24.1667C16.9778 24.1667 15.8873 24.5392 15.0898 24.8705C14.3936 25.1597 13.6064 25.1597 12.9102 24.8705C12.1127 24.5392 11.0222 24.1667 10.15 24.1667C9.03728 24.1667 7.56941 24.7729 6.80769 25.1264C6.47031 25.2832 6.10614 25.3808 5.73684 25.3624C3.91171 25.2713 3.5 24.6547 3.5 22.475V7.73327Z" stroke="#323232"/>
<path d="M14 6.05375V25.3871" stroke="#323232" stroke-linecap="round" stroke-linejoin="round"/>
</svg>
