<svg width="19" height="23" viewBox="0 0 19 23" fill="none" xmlns="http://www.w3.org/2000/svg">
<path d="M1 7.96265H18.0588M1 7.96265V18.1748C1 19.4746 1 20.1242 1.23242 20.6206C1.43684 21.0573 1.76282 21.4128 2.16405 21.6352C2.61974 21.888 3.21657 21.888 4.40847 21.888H14.6504C15.8422 21.888 16.4382 21.888 16.8939 21.6352C17.2951 21.4128 17.6222 21.0573 17.8266 20.6206C18.0588 20.1247 18.0588 19.476 18.0588 18.1787V7.96265M1 7.96265V7.03453C1 5.73471 1 5.08432 1.23242 4.58785C1.43684 4.15115 1.76282 3.79635 2.16405 3.57385C2.62018 3.32088 3.21774 3.32088 4.41198 3.32088H5.26471M18.0588 7.96265V7.03071C18.0588 5.73343 18.0588 5.08383 17.8266 4.58785C17.6222 4.15115 17.2951 3.79635 16.8939 3.57385C16.4378 3.32088 15.8415 3.32088 14.6473 3.32088H13.7941M5.26471 3.32088H13.7941M5.26471 3.32088V1M13.7941 3.32088V1" stroke="#323232" stroke-linecap="round" stroke-linejoin="round"/>
</svg>
