<svg width="21" height="21" viewBox="0 0 21 21" fill="none" xmlns="http://www.w3.org/2000/svg">
<path d="M3.81564 18.7861L5.46624 17.4241L5.47838 17.4145C5.82249 17.1305 5.99613 16.9872 6.18987 16.8852C6.36368 16.7936 6.54902 16.7269 6.74021 16.6863C6.95572 16.6407 7.1802 16.6407 7.63081 16.6407H17.0332C18.244 16.6407 18.8501 16.6407 19.3131 16.3974C19.7206 16.1832 20.0523 15.841 20.2599 15.4206C20.4958 14.9432 20.4958 14.3186 20.4958 13.0697V4.57157C20.4958 3.32264 20.4958 2.69724 20.2599 2.21975C20.0523 1.79932 19.72 1.45775 19.3124 1.24354C18.8491 1 18.2433 1 17.0301 1H4.46614C3.25295 1 2.6459 1 2.18253 1.24354C1.77493 1.45775 1.44378 1.79932 1.2361 2.21975C1 2.69771 1 3.32387 1 4.57525V17.3906C1 18.5812 1 19.1763 1.23661 19.4821C1.44239 19.748 1.75431 19.9027 2.08416 19.9024C2.46343 19.9019 2.91431 19.5299 3.81564 18.7861Z" stroke="#323232" stroke-linecap="round" stroke-linejoin="round"/>
</svg>
