<svg width="17" height="23" viewBox="0 0 17 23" fill="none" xmlns="http://www.w3.org/2000/svg">
<path d="M14.5037 21.9979H2.9291C2.41747 21.9979 1.9268 21.7767 1.56502 21.3829C1.20324 20.9892 1 20.4551 1 19.8982V3.10097C1 2.5441 1.20324 2.01004 1.56502 1.61628C1.9268 1.22252 2.41747 1.0013 2.9291 1.0013H9.7774C10.0456 0.991011 10.3127 1.04171 10.5619 1.15017C10.811 1.25864 11.0366 1.42247 11.2242 1.6312L15.9505 7.09032C16.2788 7.4946 16.4515 8.02092 16.4328 8.56008V19.8982C16.4328 20.4551 16.2296 20.9892 15.8678 21.3829C15.506 21.7767 15.0153 21.9979 14.5037 21.9979Z" stroke="#323232" stroke-linecap="round" stroke-linejoin="round"/>
<path d="M4.76147 17.2737H12.6708" stroke="#323232" stroke-linecap="round" stroke-linejoin="round"/>
<path d="M4.76147 13.0744H12.6708" stroke="#323232" stroke-linecap="round" stroke-linejoin="round"/>
<path d="M4.85815 8.87502H9.6809" stroke="#323232" stroke-linecap="round" stroke-linejoin="round"/>
</svg>
