<svg width="27" height="27" viewBox="0 0 27 27" fill="none" xmlns="http://www.w3.org/2000/svg">
<circle cx="13.5" cy="13.5" r="13" stroke="#989EA6"/>
<path fill-rule="evenodd" clip-rule="evenodd" d="M13.5 10.3065C12.0079 10.3065 10.7983 11.4945 10.7983 12.9601C10.7983 14.4256 12.0079 15.6136 13.5 15.6136C14.9922 15.6136 16.2018 14.4256 16.2018 12.9601C16.2018 11.4945 14.9922 10.3065 13.5 10.3065ZM12.1491 12.9601C12.1491 12.2273 12.754 11.6333 13.5 11.6333C14.2461 11.6333 14.8509 12.2273 14.8509 12.9601C14.8509 13.6928 14.2461 14.2868 13.5 14.2868C12.754 14.2868 12.1491 13.6928 12.1491 12.9601Z" fill="#989EA6"/>
<path fill-rule="evenodd" clip-rule="evenodd" d="M14.3444 6.70218C13.8219 6.40592 13.1782 6.40592 12.6558 6.70218L8.40436 9.11293C7.88191 9.40919 7.56006 9.9567 7.56006 10.5492V15.3707C7.56006 15.9633 7.88191 16.5108 8.40436 16.807L12.6558 19.2178C13.1782 19.514 13.8219 19.514 14.3444 19.2178L18.5958 16.807C19.1182 16.5108 19.4401 15.9633 19.4401 15.3707V10.5492C19.4401 9.9567 19.1182 9.40919 18.5958 9.11293L14.3444 6.70218ZM13.3312 7.85121C13.4357 7.79196 13.5644 7.79196 13.6689 7.85121L17.9203 10.262C18.0248 10.3212 18.0892 10.4307 18.0892 10.5492V15.3707C18.0892 15.4892 18.0248 15.5987 17.9203 15.658L13.6689 18.0688C13.5644 18.128 13.4357 18.128 13.3312 18.0688L9.07981 15.658C8.97531 15.5987 8.91094 15.4892 8.91094 15.3707V10.5492C8.91094 10.4307 8.97531 10.3212 9.07981 10.262L13.3312 7.85121Z" fill="#989EA6"/>
</svg>
