<svg width="27" height="27" viewBox="0 0 27 27" fill="none" xmlns="http://www.w3.org/2000/svg">
<path d="M17.1667 11.4222C17.1667 10.5146 16.7804 9.64414 16.0927 9.00235C15.4051 8.36055 14.4725 8 13.5 8C12.5275 8 11.5949 8.36055 10.9073 9.00235C10.2196 9.64414 9.83333 10.5146 9.83333 11.4222C9.83333 15.4148 8 16.5556 8 16.5556H19C19 16.5556 17.1667 15.4148 17.1667 11.4222Z" stroke="#989EA6" stroke-linecap="round" stroke-linejoin="round"/>
<path d="M14.5572 18.1597C14.4498 18.3218 14.2956 18.4563 14.11 18.5498C13.9244 18.6433 13.7141 18.6926 13.5 18.6926C13.2858 18.6926 13.0755 18.6433 12.89 18.5498C12.7044 18.4563 12.5502 18.3218 12.4427 18.1597" stroke="#989EA6" stroke-linecap="round" stroke-linejoin="round"/>
<circle cx="13.5" cy="13.5" r="13" stroke="#989EA6"/>
</svg>
