<svg width="28" height="28" viewBox="0 0 28 28" fill="none" xmlns="http://www.w3.org/2000/svg">
<g clip-path="url(#clip0_62_614)">
<path fill-rule="evenodd" clip-rule="evenodd" d="M23.0709 2.33334C23.5818 2.33668 24.0804 2.49073 24.5042 2.77619C24.9279 3.06164 25.258 3.46581 25.4531 3.93805C25.6482 4.41029 25.6995 4.9296 25.6008 5.4309C25.502 5.93221 25.2575 6.39322 24.8979 6.75617L14.8914 16.7755C14.8785 16.7883 14.8529 16.8012 14.84 16.814C15.1421 17.5682 15.2962 18.3734 15.2939 19.1858C15.2939 20.4677 14.9137 21.7207 14.2016 22.7865C13.4894 23.8523 12.4772 24.683 11.2929 25.1735C10.1086 25.6639 8.80545 25.7922 7.54826 25.5421C6.29107 25.2919 5.1363 24.6745 4.22999 23.7681C3.32367 22.8616 2.70652 21.7067 2.45659 20.4495C2.20666 19.1922 2.33517 17.8891 2.82586 16.7049C3.31656 15.5207 4.14741 14.5086 5.21333 13.7967C6.27925 13.0847 7.53237 12.7048 8.81421 12.705C9.62661 12.7027 10.4319 12.8568 11.186 13.1588C11.1989 13.146 11.2117 13.1203 11.2245 13.1075L15.1387 9.20617L13.0784 7.14467C12.8342 6.9007 12.697 6.56973 12.6969 6.22459C12.6968 5.87944 12.8338 5.54839 13.0778 5.30426C13.3218 5.06013 13.6527 4.92291 13.9979 4.9228C14.343 4.92269 14.6741 5.0597 14.9182 5.30367L15.372 5.75751C15.4394 5.58764 15.5408 5.43336 15.67 5.30415C15.7992 5.17493 15.9535 5.07353 16.1234 5.00617L15.6707 4.55001C15.4266 4.30603 15.2894 3.97507 15.2893 3.62992C15.2891 3.28478 15.4261 2.95372 15.6701 2.70959C15.9141 2.46546 16.2451 2.32825 16.5902 2.32814C16.9354 2.32803 17.2664 2.46503 17.5105 2.70901L17.9667 3.16634C18.0332 2.99599 18.1345 2.84141 18.2642 2.71251C18.5089 2.46992 18.8395 2.33381 19.1841 2.33381C19.5287 2.33381 19.8593 2.46992 20.104 2.71251L20.8682 3.47667L21.2439 3.10101C21.4821 2.85804 21.7664 2.665 22.0801 2.53319C22.3938 2.40138 22.7306 2.33344 23.0709 2.33334ZM8.81421 21.7782C9.32692 21.7782 9.82812 21.6261 10.2544 21.3413C10.6807 21.0564 11.013 20.6516 11.2092 20.1779C11.4054 19.7042 11.4568 19.183 11.3567 18.6801C11.2567 18.1772 11.0098 17.7153 10.6473 17.3528C10.2847 16.9902 9.82281 16.7433 9.31994 16.6433C8.81708 16.5433 8.29585 16.5946 7.82216 16.7908C7.34848 16.987 6.94361 17.3193 6.65876 17.7456C6.37391 18.1719 6.22187 18.6731 6.22187 19.1858C6.22372 19.8728 6.49743 20.5311 6.98319 21.0169C7.46895 21.5026 8.12724 21.7763 8.81421 21.7782ZM23.0709 7.64662e-06C22.3448 -0.00297082 21.6273 0.156477 20.9709 0.466674C20.5049 0.205471 19.9876 0.0492496 19.4549 0.00894481C18.9223 -0.03136 18.3873 0.0452255 17.8874 0.233341C17.4106 0.0513377 16.9008 -0.0282028 16.3912 -0.000101482C15.8817 0.0279999 15.3837 0.163113 14.9298 0.39644C14.4759 0.629767 14.0763 0.956077 13.7569 1.35412C13.4375 1.75217 13.2055 2.21302 13.076 2.70667C12.4571 2.86921 11.892 3.19231 11.4379 3.64331C10.9839 4.09431 10.657 4.65721 10.4903 5.27508C10.3236 5.89296 10.323 6.54389 10.4886 7.16206C10.6542 7.78023 10.9801 8.34371 11.4334 8.79551L11.8417 9.20384L10.5 10.5338C8.64886 10.1744 6.73119 10.4187 5.02927 11.2309C3.32735 12.043 1.93108 13.38 1.04595 15.0451C0.160827 16.7102 -0.1664 18.6155 0.112432 20.4805C0.391264 22.3455 1.26143 24.0718 2.59485 25.4052C3.92828 26.7386 5.65454 27.6088 7.51956 27.8876C9.38458 28.1664 11.2899 27.8392 12.955 26.9541C14.6201 26.069 15.9571 24.6727 16.7692 22.9708C17.5813 21.2689 17.8256 19.3512 17.4662 17.5L26.5487 8.40001C27.0091 7.94417 27.3743 7.40143 27.6232 6.80329C27.8721 6.20515 27.9998 5.56352 27.9987 4.91565C27.9976 4.26779 27.8678 3.62659 27.6169 3.02928C27.366 2.43198 26.9989 1.89046 26.537 1.43617C26.0836 0.978586 25.5436 0.615914 24.9485 0.369331C24.3533 0.122748 23.7151 -0.00280282 23.0709 7.64662e-06Z" fill="#FAA831"/>
</g>
<defs>
<clipPath id="clip0_62_614">
<rect width="28" height="28" fill="white"/>
</clipPath>
</defs>
</svg>
