<svg width="895" height="204" viewBox="0 0 895 204" fill="none" xmlns="http://www.w3.org/2000/svg">
<path d="M132.049 24.2769L128.425 14.1167L156.308 15.2286L132.049 24.2769Z" fill="white"/>
<path d="M273.169 23.6453L249.865 14.0264H277.247L273.169 23.6453Z" fill="white"/>
<path d="M0 181.155L4.32604 170.334L29.6643 179.246V181.155H0Z" fill="white"/>
<rect width="27.0905" height="164.635" transform="matrix(0.938453 0.345407 -0.314584 0.949229 55.7954 14.6343)" fill="white"/>
<rect width="25.7491" height="165.645" transform="matrix(0.936832 -0.34978 0.318662 0.947868 132.049 24.127)" fill="white"/>
<rect width="25.028" height="166.837" transform="matrix(0.932914 0.360099 -0.328296 0.944575 250.116 14.0938)" fill="white"/>
<path d="M119.798 181.155V179.953L144.899 170.334L149.462 181.155H119.798Z" fill="white"/>
<rect width="27.1153" height="165.046" transform="matrix(-0.937232 0.348707 -0.31766 -0.948205 145.212 170.498)" fill="white"/>
<path d="M74.7309 124.644L97.9507 184.161H51.5111L74.7309 124.644Z" fill="#FAA831"/>
<rect width="25.0905" height="161.468" transform="matrix(0.934935 0.354819 -0.323364 0.946275 307.686 19.5708)" fill="white"/>
<rect width="27.1384" height="161.468" transform="matrix(-0.960851 0.277064 -0.309033 -0.951051 396.975 172.564)" fill="white"/>
<rect x="289.797" y="125.846" width="71.8789" height="22.845" fill="white"/>
<path d="M344.562 14.0264H309.193L307.482 20.6394L326.878 28.4548L346.844 20.6394L344.562 14.0264Z" fill="white"/>
<path d="M202.787 172.738L184.831 180.507V181.155H218.498L219.059 179.86L202.787 172.738Z" fill="white"/>
<path d="M279.529 179.953L256.14 170.334L252.146 181.155H278.958L279.529 179.953Z" fill="white"/>
<path d="M396.112 169.35L370.745 177.85L371.273 180.266L399.933 179.651L396.112 169.35Z" fill="white"/>
<path d="M55.9058 14.6276L73.5902 21.2406H74.1607L92.9861 14.0264H92.4157H55.9058V14.6276Z" fill="white"/>
<rect x="469" y="32" width="5" height="131" rx="2" fill="#D9D9D9"/>
<path d="M546.895 49H542.278L555.631 12.6364H560.176L573.528 49H568.912L558.045 18.3892H557.761L546.895 49ZM548.599 34.7955H567.207V38.7017H548.599V34.7955ZM578.624 49V21.7273H582.673V25.9886H583.028C583.596 24.5327 584.513 23.4022 585.78 22.5973C587.046 21.7805 588.567 21.3722 590.343 21.3722C592.142 21.3722 593.64 21.7805 594.835 22.5973C596.043 23.4022 596.984 24.5327 597.658 25.9886H597.942C598.641 24.58 599.688 23.4614 601.085 22.6328C602.482 21.7924 604.157 21.3722 606.11 21.3722C608.549 21.3722 610.543 22.1357 612.094 23.6626C613.644 25.1778 614.42 27.5393 614.42 30.7472V49H610.229V30.7472C610.229 28.7348 609.679 27.2966 608.578 26.4325C607.477 25.5684 606.181 25.1364 604.69 25.1364C602.772 25.1364 601.286 25.7164 600.233 26.8764C599.179 28.0246 598.653 29.4806 598.653 31.2443V49H594.391V30.321C594.391 28.7704 593.888 27.5215 592.882 26.5746C591.876 25.6158 590.58 25.1364 588.994 25.1364C587.905 25.1364 586.887 25.4264 585.94 26.0064C585.004 26.5864 584.247 27.3913 583.667 28.4212C583.099 29.4392 582.815 30.617 582.815 31.9545V49H578.624ZM622.65 49V12.6364H626.84V26.0597H627.195C627.503 25.5862 627.929 24.9825 628.473 24.2486C629.03 23.5028 629.823 22.84 630.853 22.2599C631.894 21.6681 633.303 21.3722 635.078 21.3722C637.375 21.3722 639.399 21.9463 641.151 23.0945C642.903 24.2427 644.27 25.8703 645.252 27.9773C646.235 30.0843 646.726 32.5701 646.726 35.4347C646.726 38.3229 646.235 40.8265 645.252 42.9453C644.27 45.0523 642.909 46.6858 641.169 47.8459C639.429 48.9941 637.422 49.5682 635.15 49.5682C633.398 49.5682 631.995 49.2782 630.941 48.6982C629.888 48.1063 629.077 47.4375 628.509 46.6918C627.941 45.9342 627.503 45.3068 627.195 44.8097H626.698V49H622.65ZM626.769 35.3636C626.769 37.4233 627.071 39.2403 627.674 40.8146C628.278 42.3771 629.16 43.6023 630.32 44.4901C631.48 45.366 632.9 45.804 634.581 45.804C636.333 45.804 637.795 45.3423 638.967 44.419C640.151 43.4839 641.038 42.2292 641.63 40.6548C642.234 39.0687 642.536 37.3049 642.536 35.3636C642.536 33.446 642.24 31.7178 641.648 30.179C641.068 28.6283 640.186 27.4032 639.002 26.5036C637.831 25.5921 636.357 25.1364 634.581 25.1364C632.877 25.1364 631.444 25.5684 630.284 26.4325C629.124 27.2848 628.248 28.4804 627.657 30.0192C627.065 31.5462 626.769 33.3277 626.769 35.3636ZM653.136 49V21.7273H657.326V49H653.136ZM655.267 17.1818C654.45 17.1818 653.746 16.9036 653.154 16.3473C652.574 15.791 652.284 15.1222 652.284 14.3409C652.284 13.5597 652.574 12.8909 653.154 12.3345C653.746 11.7782 654.45 11.5 655.267 11.5C656.083 11.5 656.782 11.7782 657.362 12.3345C657.954 12.8909 658.25 13.5597 658.25 14.3409C658.25 15.1222 657.954 15.791 657.362 16.3473C656.782 16.9036 656.083 17.1818 655.267 17.1818ZM676.436 49.5682C673.808 49.5682 671.541 48.9882 669.635 47.8281C667.742 46.6562 666.28 45.0227 665.25 42.9276C664.232 40.8205 663.723 38.3703 663.723 35.5767C663.723 32.7831 664.232 30.321 665.25 28.1903C666.28 26.0478 667.712 24.3788 669.547 23.1832C671.393 21.9759 673.548 21.3722 676.01 21.3722C677.43 21.3722 678.833 21.6089 680.218 22.0824C681.603 22.5559 682.863 23.3253 684 24.3906C685.136 25.4441 686.042 26.8409 686.716 28.581C687.391 30.321 687.729 32.4635 687.729 35.0085V36.7841H666.706V33.1619H683.467C683.467 31.6231 683.159 30.25 682.544 29.0426C681.94 27.8352 681.076 26.8823 679.952 26.1839C678.839 25.4856 677.525 25.1364 676.01 25.1364C674.341 25.1364 672.897 25.5507 671.677 26.3793C670.47 27.196 669.541 28.2614 668.89 29.5753C668.239 30.8892 667.913 32.2978 667.913 33.8011V36.2159C667.913 38.2756 668.268 40.0215 668.979 41.4538C669.701 42.8743 670.701 43.9574 671.979 44.7031C673.258 45.437 674.743 45.804 676.436 45.804C677.537 45.804 678.531 45.6501 679.419 45.3423C680.318 45.0227 681.094 44.5492 681.745 43.9219C682.396 43.2827 682.899 42.4896 683.254 41.5426L687.302 42.679C686.876 44.0521 686.16 45.2595 685.154 46.3011C684.148 47.331 682.905 48.1359 681.425 48.7159C679.946 49.2841 678.282 49.5682 676.436 49.5682ZM698.293 32.5938V49H694.103V21.7273H698.151V25.9886H698.506C699.145 24.6037 700.116 23.491 701.418 22.6506C702.72 21.7983 704.401 21.3722 706.461 21.3722C708.307 21.3722 709.923 21.7509 711.308 22.5085C712.693 23.2543 713.77 24.3906 714.54 25.9176C715.309 27.4328 715.694 29.3504 715.694 31.6705V49H711.503V31.9545C711.503 29.812 710.947 28.143 709.834 26.9474C708.722 25.7401 707.195 25.1364 705.253 25.1364C703.916 25.1364 702.72 25.4264 701.667 26.0064C700.625 26.5864 699.802 27.4328 699.199 28.5455C698.595 29.6581 698.293 31.0076 698.293 32.5938ZM735.212 21.7273V25.2784H721.078V21.7273H735.212ZM725.197 15.1932H729.388V41.1875C729.388 42.3712 729.559 43.259 729.903 43.8509C730.258 44.4309 730.708 44.8215 731.252 45.0227C731.808 45.2121 732.394 45.3068 733.01 45.3068C733.472 45.3068 733.85 45.2831 734.146 45.2358C734.442 45.1766 734.679 45.1293 734.857 45.0938L735.709 48.858C735.425 48.9645 735.028 49.071 734.519 49.1776C734.01 49.2959 733.365 49.3551 732.584 49.3551C731.4 49.3551 730.24 49.1006 729.104 48.5916C727.979 48.0826 727.044 47.3073 726.298 46.2656C725.564 45.224 725.197 43.91 725.197 42.3239V15.1932ZM752.657 49.5682C750.029 49.5682 747.762 48.9882 745.856 47.8281C743.962 46.6562 742.5 45.0227 741.471 42.9276C740.453 40.8205 739.944 38.3703 739.944 35.5767C739.944 32.7831 740.453 30.321 741.471 28.1903C742.5 26.0478 743.933 24.3788 745.767 23.1832C747.614 21.9759 749.768 21.3722 752.23 21.3722C753.651 21.3722 755.054 21.6089 756.439 22.0824C757.824 22.5559 759.084 23.3253 760.221 24.3906C761.357 25.4441 762.262 26.8409 762.937 28.581C763.612 30.321 763.949 32.4635 763.949 35.0085V36.7841H742.926V33.1619H759.688C759.688 31.6231 759.38 30.25 758.765 29.0426C758.161 27.8352 757.297 26.8823 756.172 26.1839C755.06 25.4856 753.746 25.1364 752.23 25.1364C750.561 25.1364 749.117 25.5507 747.898 26.3793C746.691 27.196 745.761 28.2614 745.11 29.5753C744.459 30.8892 744.134 32.2978 744.134 33.8011V36.2159C744.134 38.2756 744.489 40.0215 745.199 41.4538C745.921 42.8743 746.922 43.9574 748.2 44.7031C749.478 45.437 750.964 45.804 752.657 45.804C753.757 45.804 754.752 45.6501 755.64 45.3423C756.539 45.0227 757.315 44.5492 757.966 43.9219C758.617 43.2827 759.12 42.4896 759.475 41.5426L763.523 42.679C763.097 44.0521 762.381 45.2595 761.375 46.3011C760.368 47.331 759.126 48.1359 757.646 48.7159C756.166 49.2841 754.503 49.5682 752.657 49.5682ZM546.895 73.6364L557.69 104.247H558.116L568.912 73.6364H573.528L560.176 110H555.631L542.278 73.6364H546.895ZM578.624 110V82.7273H582.815V110H578.624ZM580.755 78.1818C579.938 78.1818 579.234 77.9036 578.642 77.3473C578.062 76.791 577.772 76.1222 577.772 75.3409C577.772 74.5597 578.062 73.8909 578.642 73.3345C579.234 72.7782 579.938 72.5 580.755 72.5C581.572 72.5 582.27 72.7782 582.85 73.3345C583.442 73.8909 583.738 74.5597 583.738 75.3409C583.738 76.1222 583.442 76.791 582.85 77.3473C582.27 77.9036 581.572 78.1818 580.755 78.1818ZM590.49 110V82.7273H594.538V86.8466H594.822C595.319 85.4972 596.219 84.4022 597.521 83.5618C598.823 82.7214 600.291 82.3011 601.924 82.3011C602.232 82.3011 602.617 82.3071 603.078 82.3189C603.54 82.3307 603.889 82.3485 604.126 82.3722V86.6335C603.984 86.598 603.658 86.5447 603.149 86.4737C602.652 86.3909 602.125 86.3494 601.569 86.3494C600.243 86.3494 599.06 86.6276 598.018 87.1839C596.988 87.7285 596.171 88.486 595.568 89.4567C594.976 90.4155 594.68 91.5104 594.68 92.7415V110H590.49ZM622.663 82.7273V86.2784H608.529V82.7273H622.663ZM612.649 76.1932H616.839V102.188C616.839 103.371 617.011 104.259 617.354 104.851C617.709 105.431 618.159 105.821 618.703 106.023C619.26 106.212 619.846 106.307 620.461 106.307C620.923 106.307 621.302 106.283 621.597 106.236C621.893 106.177 622.13 106.129 622.308 106.094L623.16 109.858C622.876 109.964 622.479 110.071 621.97 110.178C621.461 110.296 620.816 110.355 620.035 110.355C618.851 110.355 617.691 110.101 616.555 109.592C615.43 109.083 614.495 108.307 613.749 107.266C613.016 106.224 612.649 104.91 612.649 103.324V76.1932ZM646.154 98.8494V82.7273H650.344V110H646.154V105.384H645.869C645.23 106.768 644.236 107.946 642.887 108.917C641.537 109.876 639.833 110.355 637.773 110.355C636.068 110.355 634.553 109.982 633.227 109.237C631.902 108.479 630.86 107.343 630.102 105.827C629.345 104.3 628.966 102.377 628.966 100.057V82.7273H633.156V99.7727C633.156 101.761 633.713 103.348 634.825 104.531C635.95 105.715 637.382 106.307 639.122 106.307C640.164 106.307 641.223 106.04 642.301 105.508C643.39 104.975 644.301 104.158 645.035 103.058C645.781 101.957 646.154 100.554 646.154 98.8494ZM666.044 110.639C664.316 110.639 662.748 110.314 661.339 109.663C659.931 109 658.812 108.047 657.983 106.804C657.155 105.549 656.74 104.034 656.74 102.259C656.74 100.696 657.048 99.4295 657.664 98.4588C658.279 97.4763 659.102 96.7069 660.132 96.1506C661.162 95.5942 662.298 95.1799 663.541 94.9077C664.796 94.6236 666.056 94.3987 667.323 94.233C668.98 94.0199 670.324 93.8601 671.353 93.7536C672.395 93.6352 673.153 93.4399 673.626 93.1676C674.111 92.8954 674.354 92.4219 674.354 91.7472V91.6051C674.354 89.8532 673.875 88.492 672.916 87.5213C671.969 86.5507 670.531 86.0653 668.601 86.0653C666.601 86.0653 665.032 86.5033 663.896 87.3793C662.76 88.2552 661.961 89.1903 661.499 90.1847L657.522 88.7642C658.232 87.107 659.179 85.8168 660.363 84.8935C661.558 83.9583 662.86 83.3073 664.269 82.9403C665.689 82.5616 667.086 82.3722 668.459 82.3722C669.335 82.3722 670.341 82.4787 671.478 82.6918C672.626 82.893 673.733 83.3132 674.798 83.9524C675.875 84.5916 676.769 85.5563 677.479 86.8466C678.189 88.1368 678.544 89.8651 678.544 92.0312V110H674.354V106.307H674.141C673.857 106.899 673.383 107.532 672.721 108.207C672.058 108.881 671.176 109.455 670.075 109.929C668.974 110.402 667.631 110.639 666.044 110.639ZM666.684 106.875C668.341 106.875 669.738 106.549 670.874 105.898C672.022 105.247 672.886 104.407 673.466 103.377C674.058 102.347 674.354 101.264 674.354 100.128V96.2926C674.176 96.5057 673.786 96.701 673.182 96.8786C672.59 97.0443 671.904 97.1922 671.123 97.3224C670.353 97.4408 669.601 97.5473 668.868 97.642C668.145 97.7249 667.56 97.7959 667.11 97.8551C666.021 97.9972 665.003 98.228 664.056 98.5476C663.121 98.8554 662.363 99.3229 661.783 99.9503C661.215 100.566 660.931 101.406 660.931 102.472C660.931 103.928 661.469 105.028 662.547 105.774C663.636 106.508 665.015 106.875 666.684 106.875ZM690.383 73.6364V110H686.193V73.6364H690.383ZM722.419 110.568C720.146 110.568 718.14 109.994 716.4 108.846C714.659 107.686 713.298 106.052 712.316 103.945C711.333 101.826 710.842 99.3229 710.842 96.4347C710.842 93.5701 711.333 91.0843 712.316 88.9773C713.298 86.8703 714.665 85.2427 716.417 84.0945C718.169 82.9463 720.193 82.3722 722.49 82.3722C724.265 82.3722 725.668 82.6681 726.698 83.2599C727.739 83.84 728.533 84.5028 729.077 85.2486C729.633 85.9825 730.065 86.5862 730.373 87.0597H730.728V73.6364H734.919V110H730.87V105.81H730.373C730.065 106.307 729.627 106.934 729.059 107.692C728.491 108.437 727.68 109.106 726.627 109.698C725.573 110.278 724.171 110.568 722.419 110.568ZM722.987 106.804C724.668 106.804 726.088 106.366 727.248 105.49C728.408 104.602 729.29 103.377 729.894 101.815C730.498 100.24 730.799 98.4233 730.799 96.3636C730.799 94.3277 730.503 92.5462 729.912 91.0192C729.32 89.4804 728.444 88.2848 727.284 87.4325C726.124 86.5684 724.691 86.1364 722.987 86.1364C721.211 86.1364 719.732 86.5921 718.548 87.5036C717.376 88.4032 716.494 89.6283 715.902 91.179C715.322 92.7178 715.032 94.446 715.032 96.3636C715.032 98.3049 715.328 100.069 715.92 101.655C716.524 103.229 717.412 104.484 718.583 105.419C719.767 106.342 721.235 106.804 722.987 106.804ZM754.61 110.568C751.982 110.568 749.715 109.988 747.809 108.828C745.915 107.656 744.453 106.023 743.424 103.928C742.406 101.821 741.897 99.3703 741.897 96.5767C741.897 93.7831 742.406 91.321 743.424 89.1903C744.453 87.0478 745.886 85.3788 747.721 84.1832C749.567 82.9759 751.721 82.3722 754.184 82.3722C755.604 82.3722 757.007 82.6089 758.392 83.0824C759.777 83.5559 761.037 84.3253 762.174 85.3906C763.31 86.4441 764.216 87.8409 764.89 89.581C765.565 91.321 765.902 93.4635 765.902 96.0085V97.7841H744.88V94.1619H761.641C761.641 92.6231 761.333 91.25 760.718 90.0426C760.114 88.8352 759.25 87.8823 758.125 87.1839C757.013 86.4856 755.699 86.1364 754.184 86.1364C752.515 86.1364 751.07 86.5507 749.851 87.3793C748.644 88.196 747.715 89.2614 747.064 90.5753C746.413 91.8892 746.087 93.2978 746.087 94.8011V97.2159C746.087 99.2756 746.442 101.022 747.152 102.454C747.874 103.874 748.875 104.957 750.153 105.703C751.431 106.437 752.917 106.804 754.61 106.804C755.711 106.804 756.705 106.65 757.593 106.342C758.492 106.023 759.268 105.549 759.919 104.922C760.57 104.283 761.073 103.49 761.428 102.543L765.476 103.679C765.05 105.052 764.334 106.259 763.328 107.301C762.322 108.331 761.079 109.136 759.599 109.716C758.119 110.284 756.456 110.568 754.61 110.568ZM546.895 171H542.278L555.631 134.636H560.176L573.528 171H568.912L558.045 140.389H557.761L546.895 171ZM548.599 156.795H567.207V160.702H548.599V156.795ZM578.624 181.227V143.727H582.673V148.06H583.17C583.478 147.586 583.904 146.982 584.448 146.249C585.004 145.503 585.798 144.84 586.827 144.26C587.869 143.668 589.278 143.372 591.053 143.372C593.35 143.372 595.374 143.946 597.126 145.094C598.878 146.243 600.245 147.87 601.227 149.977C602.21 152.084 602.701 154.57 602.701 157.435C602.701 160.323 602.21 162.826 601.227 164.945C600.245 167.052 598.884 168.686 597.143 169.846C595.403 170.994 593.397 171.568 591.124 171.568C589.372 171.568 587.97 171.278 586.916 170.698C585.863 170.106 585.052 169.437 584.484 168.692C583.915 167.934 583.478 167.307 583.17 166.81H582.815V181.227H578.624ZM582.744 157.364C582.744 159.423 583.045 161.24 583.649 162.815C584.253 164.377 585.135 165.602 586.295 166.49C587.455 167.366 588.875 167.804 590.556 167.804C592.308 167.804 593.77 167.342 594.942 166.419C596.125 165.484 597.013 164.229 597.605 162.655C598.209 161.069 598.511 159.305 598.511 157.364C598.511 155.446 598.215 153.718 597.623 152.179C597.043 150.628 596.161 149.403 594.977 148.504C593.805 147.592 592.332 147.136 590.556 147.136C588.852 147.136 587.419 147.568 586.259 148.433C585.099 149.285 584.223 150.48 583.631 152.019C583.04 153.546 582.744 155.328 582.744 157.364ZM609.093 171V143.727H613.141V147.847H613.425C613.923 146.497 614.822 145.402 616.124 144.562C617.426 143.721 618.894 143.301 620.528 143.301C620.835 143.301 621.22 143.307 621.682 143.319C622.143 143.331 622.493 143.348 622.729 143.372V147.634C622.587 147.598 622.262 147.545 621.753 147.474C621.256 147.391 620.729 147.349 620.173 147.349C618.847 147.349 617.663 147.628 616.621 148.184C615.592 148.728 614.775 149.486 614.171 150.457C613.579 151.415 613.283 152.51 613.283 153.741V171H609.093ZM638.301 171.568C635.673 171.568 633.406 170.988 631.501 169.828C629.607 168.656 628.145 167.023 627.115 164.928C626.097 162.821 625.588 160.37 625.588 157.577C625.588 154.783 626.097 152.321 627.115 150.19C628.145 148.048 629.577 146.379 631.412 145.183C633.259 143.976 635.413 143.372 637.875 143.372C639.295 143.372 640.698 143.609 642.083 144.082C643.468 144.556 644.729 145.325 645.865 146.391C647.001 147.444 647.907 148.841 648.582 150.581C649.256 152.321 649.594 154.464 649.594 157.009V158.784H628.571V155.162H645.332C645.332 153.623 645.025 152.25 644.409 151.043C643.805 149.835 642.941 148.882 641.817 148.184C640.704 147.486 639.39 147.136 637.875 147.136C636.206 147.136 634.762 147.551 633.543 148.379C632.335 149.196 631.406 150.261 630.755 151.575C630.104 152.889 629.778 154.298 629.778 155.801V158.216C629.778 160.276 630.134 162.022 630.844 163.454C631.566 164.874 632.566 165.957 633.844 166.703C635.123 167.437 636.608 167.804 638.301 167.804C639.402 167.804 640.396 167.65 641.284 167.342C642.184 167.023 642.959 166.549 643.61 165.922C644.261 165.283 644.764 164.49 645.119 163.543L649.168 164.679C648.741 166.052 648.025 167.259 647.019 168.301C646.013 169.331 644.77 170.136 643.29 170.716C641.811 171.284 640.148 171.568 638.301 171.568ZM660.158 154.594V171H655.968V143.727H660.016V147.989H660.371C661.011 146.604 661.981 145.491 663.283 144.651C664.585 143.798 666.266 143.372 668.326 143.372C670.173 143.372 671.788 143.751 673.173 144.509C674.558 145.254 675.635 146.391 676.405 147.918C677.174 149.433 677.559 151.35 677.559 153.67V171H673.369V153.955C673.369 151.812 672.812 150.143 671.7 148.947C670.587 147.74 669.06 147.136 667.119 147.136C665.781 147.136 664.585 147.426 663.532 148.006C662.49 148.586 661.668 149.433 661.064 150.545C660.46 151.658 660.158 153.008 660.158 154.594ZM695.514 171.568C693.242 171.568 691.235 170.994 689.495 169.846C687.755 168.686 686.394 167.052 685.411 164.945C684.429 162.826 683.938 160.323 683.938 157.435C683.938 154.57 684.429 152.084 685.411 149.977C686.394 147.87 687.761 146.243 689.513 145.094C691.265 143.946 693.289 143.372 695.585 143.372C697.361 143.372 698.764 143.668 699.794 144.26C700.835 144.84 701.628 145.503 702.173 146.249C702.729 146.982 703.161 147.586 703.469 148.06H703.824V134.636H708.014V171H703.966V166.81H703.469C703.161 167.307 702.723 167.934 702.155 168.692C701.587 169.437 700.776 170.106 699.722 170.698C698.669 171.278 697.266 171.568 695.514 171.568ZM696.083 167.804C697.763 167.804 699.184 167.366 700.344 166.49C701.504 165.602 702.386 164.377 702.99 162.815C703.593 161.24 703.895 159.423 703.895 157.364C703.895 155.328 703.599 153.546 703.007 152.019C702.415 150.48 701.539 149.285 700.379 148.433C699.219 147.568 697.787 147.136 696.083 147.136C694.307 147.136 692.827 147.592 691.644 148.504C690.472 149.403 689.59 150.628 688.998 152.179C688.418 153.718 688.128 155.446 688.128 157.364C688.128 159.305 688.424 161.069 689.016 162.655C689.619 164.229 690.507 165.484 691.679 166.419C692.863 167.342 694.331 167.804 696.083 167.804ZM716.271 171V143.727H720.461V171H716.271ZM718.401 139.182C717.585 139.182 716.88 138.904 716.289 138.347C715.709 137.791 715.419 137.122 715.419 136.341C715.419 135.56 715.709 134.891 716.289 134.335C716.88 133.778 717.585 133.5 718.401 133.5C719.218 133.5 719.917 133.778 720.497 134.335C721.088 134.891 721.384 135.56 721.384 136.341C721.384 137.122 721.088 137.791 720.497 138.347C719.917 138.904 719.218 139.182 718.401 139.182ZM727.355 171V167.804L742.838 147.918V147.634H727.852V143.727H748.235V147.065L733.179 166.81V167.094H748.733V171H727.355ZM763.212 171.639C761.484 171.639 759.916 171.314 758.507 170.663C757.098 170 755.98 169.047 755.151 167.804C754.323 166.549 753.908 165.034 753.908 163.259C753.908 161.696 754.216 160.429 754.832 159.459C755.447 158.476 756.27 157.707 757.3 157.151C758.33 156.594 759.466 156.18 760.709 155.908C761.964 155.624 763.224 155.399 764.491 155.233C766.148 155.02 767.491 154.86 768.521 154.754C769.563 154.635 770.321 154.44 770.794 154.168C771.279 153.895 771.522 153.422 771.522 152.747V152.605C771.522 150.853 771.043 149.492 770.084 148.521C769.137 147.551 767.699 147.065 765.769 147.065C763.769 147.065 762.2 147.503 761.064 148.379C759.928 149.255 759.129 150.19 758.667 151.185L754.69 149.764C755.4 148.107 756.347 146.817 757.531 145.893C758.726 144.958 760.028 144.307 761.437 143.94C762.857 143.562 764.254 143.372 765.627 143.372C766.503 143.372 767.509 143.479 768.646 143.692C769.794 143.893 770.901 144.313 771.966 144.952C773.043 145.592 773.937 146.556 774.647 147.847C775.357 149.137 775.712 150.865 775.712 153.031V171H771.522V167.307H771.309C771.025 167.899 770.551 168.532 769.888 169.207C769.226 169.881 768.344 170.455 767.243 170.929C766.142 171.402 764.799 171.639 763.212 171.639ZM763.852 167.875C765.509 167.875 766.906 167.549 768.042 166.898C769.19 166.247 770.054 165.407 770.634 164.377C771.226 163.347 771.522 162.264 771.522 161.128V157.293C771.344 157.506 770.954 157.701 770.35 157.879C769.758 158.044 769.072 158.192 768.29 158.322C767.521 158.441 766.769 158.547 766.036 158.642C765.313 158.725 764.728 158.796 764.278 158.855C763.189 158.997 762.171 159.228 761.224 159.548C760.289 159.855 759.531 160.323 758.951 160.95C758.383 161.566 758.099 162.406 758.099 163.472C758.099 164.928 758.637 166.028 759.714 166.774C760.804 167.508 762.183 167.875 763.852 167.875ZM794.369 181.795C792.345 181.795 790.605 181.535 789.149 181.014C787.693 180.505 786.48 179.83 785.509 178.99C784.55 178.161 783.787 177.274 783.219 176.327L786.557 173.983C786.935 174.48 787.415 175.048 787.995 175.688C788.575 176.339 789.368 176.901 790.374 177.374C791.392 177.86 792.724 178.102 794.369 178.102C796.571 178.102 798.388 177.57 799.82 176.504C801.252 175.439 801.969 173.77 801.969 171.497V165.957H801.613C801.306 166.455 800.868 167.07 800.3 167.804C799.743 168.526 798.938 169.171 797.885 169.739C796.843 170.296 795.434 170.574 793.659 170.574C791.457 170.574 789.48 170.053 787.729 169.011C785.988 167.97 784.609 166.455 783.591 164.466C782.585 162.477 782.082 160.062 782.082 157.222C782.082 154.428 782.573 151.996 783.556 149.924C784.538 147.841 785.906 146.231 787.657 145.094C789.409 143.946 791.434 143.372 793.73 143.372C795.506 143.372 796.914 143.668 797.956 144.26C799.009 144.84 799.814 145.503 800.371 146.249C800.939 146.982 801.377 147.586 801.684 148.06H802.111V143.727H806.159V171.781C806.159 174.125 805.626 176.031 804.561 177.499C803.507 178.978 802.087 180.061 800.3 180.748C798.524 181.446 796.547 181.795 794.369 181.795ZM794.227 166.81C795.908 166.81 797.328 166.425 798.488 165.656C799.648 164.886 800.53 163.779 801.134 162.335C801.738 160.891 802.04 159.163 802.04 157.151C802.04 155.186 801.744 153.451 801.152 151.948C800.56 150.445 799.684 149.267 798.524 148.415C797.364 147.562 795.932 147.136 794.227 147.136C792.452 147.136 790.972 147.586 789.788 148.486C788.616 149.385 787.734 150.593 787.143 152.108C786.563 153.623 786.273 155.304 786.273 157.151C786.273 159.045 786.568 160.719 787.16 162.175C787.764 163.62 788.652 164.756 789.824 165.585C791.007 166.401 792.475 166.81 794.227 166.81ZM825.264 171.568C822.636 171.568 820.369 170.988 818.464 169.828C816.57 168.656 815.108 167.023 814.078 164.928C813.06 162.821 812.551 160.37 812.551 157.577C812.551 154.783 813.06 152.321 814.078 150.19C815.108 148.048 816.54 146.379 818.375 145.183C820.221 143.976 822.376 143.372 824.838 143.372C826.258 143.372 827.661 143.609 829.046 144.082C830.431 144.556 831.692 145.325 832.828 146.391C833.964 147.444 834.87 148.841 835.545 150.581C836.219 152.321 836.557 154.464 836.557 157.009V158.784H815.534V155.162H832.295C832.295 153.623 831.988 152.25 831.372 151.043C830.768 149.835 829.904 148.882 828.78 148.184C827.667 147.486 826.353 147.136 824.838 147.136C823.169 147.136 821.725 147.551 820.506 148.379C819.298 149.196 818.369 150.261 817.718 151.575C817.067 152.889 816.741 154.298 816.741 155.801V158.216C816.741 160.276 817.096 162.022 817.807 163.454C818.529 164.874 819.529 165.957 820.807 166.703C822.086 167.437 823.571 167.804 825.264 167.804C826.365 167.804 827.359 167.65 828.247 167.342C829.147 167.023 829.922 166.549 830.573 165.922C831.224 165.283 831.727 164.49 832.082 163.543L836.131 164.679C835.704 166.052 834.988 167.259 833.982 168.301C832.976 169.331 831.733 170.136 830.253 170.716C828.774 171.284 827.111 171.568 825.264 171.568ZM842.931 171V143.727H846.979V147.989H847.334C847.903 146.533 848.82 145.402 850.086 144.597C851.353 143.781 852.874 143.372 854.65 143.372C856.449 143.372 857.946 143.781 859.142 144.597C860.349 145.402 861.29 146.533 861.965 147.989H862.249C862.948 146.58 863.995 145.461 865.392 144.633C866.789 143.792 868.464 143.372 870.417 143.372C872.855 143.372 874.85 144.136 876.4 145.663C877.951 147.178 878.726 149.539 878.726 152.747V171H874.536V152.747C874.536 150.735 873.986 149.297 872.885 148.433C871.784 147.568 870.488 147.136 868.996 147.136C867.079 147.136 865.593 147.716 864.54 148.876C863.486 150.025 862.959 151.481 862.959 153.244V171H858.698V152.321C858.698 150.77 858.195 149.522 857.189 148.575C856.183 147.616 854.886 147.136 853.3 147.136C852.211 147.136 851.193 147.426 850.246 148.006C849.311 148.586 848.554 149.391 847.974 150.421C847.405 151.439 847.121 152.617 847.121 153.955V171H842.931Z" fill="white"/>
</svg>
