<svg width="104" height="50" viewBox="0 0 104 50" fill="none" xmlns="http://www.w3.org/2000/svg">
<path d="M34.3154 2.67065L33.3735 0.0303345L40.6196 0.319279L34.3154 2.67065Z" fill="white"/>
<path d="M70.988 2.50652L64.932 0.00686646H72.0478L70.988 2.50652Z" fill="white"/>
<path d="M0 43.4383L1.1242 40.6262L7.70881 42.942V43.4383H0Z" fill="white"/>
<rect width="7.03996" height="42.7833" transform="matrix(0.938453 0.345407 -0.314584 0.949229 14.4995 0.164886)" fill="white"/>
<rect width="6.69139" height="43.0459" transform="matrix(0.936832 -0.34978 0.318662 0.947868 34.3154 2.63168)" fill="white"/>
<rect width="6.50397" height="43.3556" transform="matrix(0.932914 0.360099 -0.328296 0.944575 64.9973 0.024353)" fill="white"/>
<path d="M31.1317 43.4383V43.1258L37.6546 40.6262L38.8405 43.4383H31.1317Z" fill="white"/>
<rect width="7.0464" height="42.8903" transform="matrix(-0.937232 0.348707 -0.31766 -0.948205 37.736 40.6688)" fill="white"/>
<path d="M19.4202 28.7528L25.4543 44.2194H13.3861L19.4202 28.7528Z" fill="#FAA831"/>
<rect width="6.52023" height="41.9605" transform="matrix(0.934935 0.354819 -0.323364 0.946275 79.958 1.44766)" fill="white"/>
<rect width="6.9507" height="41.0858" transform="matrix(0.939379 -0.34288 0.312231 0.950006 83.6174 4.10931)" fill="white"/>
<rect x="75.3092" y="29.0653" width="18.679" height="5.93668" fill="white"/>
<path d="M89.5408 0.00686646H80.3495L79.9048 1.72538L84.9452 3.75635L90.1338 1.72538L89.5408 0.00686646Z" fill="white"/>
<path d="M52.698 41.2511L48.0319 43.27V43.4383H56.7808L56.9266 43.1018L52.698 41.2511Z" fill="white"/>
<path d="M72.6407 43.1258L66.5626 40.6262L65.5249 43.4383H72.4925L72.6407 43.1258Z" fill="white"/>
<path d="M102.91 40.3701L96.3449 42.5793L96.4816 43.2071L103.898 43.0468L102.91 40.3701Z" fill="white"/>
<path d="M14.5281 0.163095L19.1237 1.88161H19.272L24.1641 0.00686646H24.0158H14.5281V0.163095Z" fill="white"/>
</svg>
