<svg width="401" height="190" viewBox="0 0 401 190" fill="none" xmlns="http://www.w3.org/2000/svg">
<path d="M132.049 10.2769L128.425 0.116699L156.308 1.22859L132.049 10.2769Z" fill="white"/>
<path d="M273.169 9.6453L249.865 0.0263672H277.247L273.169 9.6453Z" fill="white"/>
<path d="M0 167.155L4.32604 156.334L29.6643 165.246V167.155H0Z" fill="white"/>
<rect width="27.0905" height="164.635" transform="matrix(0.938453 0.345407 -0.314584 0.949229 55.7954 0.634277)" fill="white"/>
<rect width="25.7491" height="165.645" transform="matrix(0.936832 -0.34978 0.318662 0.947868 132.049 10.127)" fill="white"/>
<rect width="25.028" height="166.837" transform="matrix(0.932914 0.360099 -0.328296 0.944575 250.116 0.09375)" fill="white"/>
<path d="M119.798 167.155V165.953L144.899 156.334L149.462 167.155H119.798Z" fill="white"/>
<rect width="27.1153" height="165.046" transform="matrix(-0.937232 0.348707 -0.31766 -0.948205 145.212 156.498)" fill="white"/>
<path d="M74.7309 110.644L97.9507 170.161H51.5111L74.7309 110.644Z" fill="#FAA831"/>
<rect width="25.0905" height="161.468" transform="matrix(0.934935 0.354819 -0.323364 0.946275 307.686 5.5708)" fill="white"/>
<rect width="27.1384" height="161.468" transform="matrix(-0.960851 0.277064 -0.309033 -0.951051 396.975 158.564)" fill="white"/>
<rect x="289.797" y="111.846" width="71.8789" height="22.845" fill="white"/>
<path d="M344.562 0.0263672H309.193L307.482 6.63938L326.878 14.4548L346.844 6.63938L344.562 0.0263672Z" fill="white"/>
<path d="M202.787 158.738L184.831 166.507V167.155H218.498L219.059 165.86L202.787 158.738Z" fill="white"/>
<path d="M279.529 165.953L256.14 156.334L252.146 167.155H278.958L279.529 165.953Z" fill="white"/>
<path d="M396.112 155.35L370.745 163.85L371.273 166.266L399.933 165.651L396.112 155.35Z" fill="white"/>
<path d="M55.9058 0.62755L73.5902 7.24056H74.1607L92.9861 0.0263672H92.4157H55.9058V0.62755Z" fill="white"/>
</svg>
