<svg width="180" height="102" viewBox="0 0 180 102" fill="none" xmlns="http://www.w3.org/2000/svg">
<g clip-path="url(#clip0_40_730)">
<path d="M167.129 95.5002C167.081 97.319 166.777 99.1219 166.228 100.856C166.216 100.896 166.202 100.936 166.189 100.976H162.825C162.829 100.94 162.832 100.899 162.836 100.856C163.06 98.2668 161.779 82.6979 160.232 80.0034C160.368 80.2219 167.39 87.2741 167.129 95.5002Z" fill="#F1F1F1"/>
<path d="M166.877 100.856C166.849 100.896 166.82 100.936 166.79 100.976H164.266C164.285 100.942 164.307 100.901 164.333 100.856C164.75 100.1 165.984 97.8417 167.129 95.5002C168.359 92.984 169.489 90.3724 169.394 89.4271C169.424 89.6402 170.275 96.1392 166.877 100.856Z" fill="#F1F1F1"/>
<path d="M9.41548 96.9091C9.45153 98.26 9.67692 99.5989 10.085 100.887C10.0941 100.917 10.1041 100.946 10.1139 100.976H12.6122C12.6096 100.949 12.6069 100.919 12.6043 100.887C12.4377 98.9639 13.3893 87.401 14.5377 85.3998C14.4371 85.5621 9.22177 90.7997 9.41548 96.9091Z" fill="#F1F1F1"/>
<path d="M9.60293 100.887C9.62383 100.916 9.64555 100.946 9.6678 100.976H11.5421C11.5279 100.95 11.5115 100.92 11.4924 100.887C11.1828 100.326 10.2663 98.6481 9.41564 96.9091C8.50182 95.0403 7.66274 93.1007 7.7334 92.3987C7.7115 92.5569 7.07889 97.3837 9.60293 100.887Z" fill="#F1F1F1"/>
<path d="M131.472 71.2312C112.602 63.2024 95.5312 63.5076 79.4515 68.408C54.6761 64.0637 37.7108 64.7359 26.8286 71.2312V51.0654H131.472V71.2312Z" fill="#CBCBCB"/>
<path d="M131.472 65.6856C114.088 57.7771 96.7247 57.2665 79.1 65.6856C61.0479 60.4671 43.5968 60.5217 26.7281 65.6856V4.38149C44.6629 -0.992894 62.1088 -0.863744 79.1 4.38149C97.0483 -0.845627 114.521 -1.01141 131.472 4.38149V65.6856Z" fill="#E5E5E5"/>
<path d="M31.4391 11.9892L30.8544 10.4865C31.0836 10.3966 36.5601 8.27096 44.5973 7.18666C52.028 6.18398 63.0988 5.94461 73.6429 10.4968L73.0082 11.9789C62.8166 7.57905 52.0732 7.81073 44.855 8.77964C36.9984 9.8345 31.4938 11.9678 31.4391 11.9892Z" fill="white"/>
<path d="M31.4391 17.6357L30.8544 16.133C31.0836 16.0431 36.5601 13.9174 44.5973 12.8331C52.028 11.8306 63.0988 11.5912 73.6429 16.1433L73.0082 17.6254C62.8166 13.2255 52.0732 13.457 44.855 14.4261C36.9984 15.481 31.4938 17.6143 31.4391 17.6357Z" fill="white"/>
<path d="M31.4391 23.2821L30.8544 21.7795C31.0836 21.6896 36.5601 19.5639 44.5973 18.4796C52.028 17.4769 63.0988 17.2375 73.6429 21.7897L73.0082 23.2718C62.8166 18.872 52.0732 19.1034 44.855 20.0725C36.9984 21.1274 31.4938 23.2607 31.4391 23.2821Z" fill="white"/>
<path d="M31.4391 28.9286L30.8544 27.4259C31.0836 27.336 36.5601 25.2103 44.5973 24.126C52.028 23.1235 63.0988 22.8838 73.6429 27.4361L73.0082 28.9182C62.8166 24.5184 52.0732 24.75 44.855 25.719C36.9984 26.7738 31.4938 28.9071 31.4391 28.9286Z" fill="white"/>
<path d="M31.4391 34.575L30.8544 33.0723C31.0836 32.9824 36.5601 30.8567 44.5973 29.7724C52.028 28.7697 63.0988 28.5304 73.6429 33.0825L73.0082 34.5647C62.8166 30.1647 52.0732 30.3964 44.855 31.3654C36.9984 32.4203 31.4938 34.5535 31.4391 34.575Z" fill="white"/>
<path d="M31.4391 40.2215L30.8544 38.7188C31.0836 38.6289 36.5601 36.5032 44.5973 35.4189C52.028 34.4164 63.0988 34.1768 73.6429 38.729L73.0082 40.2111C62.8166 35.8112 52.0732 36.0429 44.855 37.0119C36.9984 38.0667 31.4938 40.2 31.4391 40.2215Z" fill="white"/>
<path d="M83.8612 52.1193L83.2764 50.6166C83.5056 50.5267 88.9821 48.401 97.0194 47.3167C104.45 46.3142 115.521 46.0746 126.065 50.6268L125.43 52.1089C115.239 47.709 104.495 47.9408 97.2771 48.9097C89.4204 49.9645 83.9159 52.0978 83.8612 52.1193Z" fill="#FAA831"/>
<path d="M83.368 41.2827V10.4432L83.9319 10.2663C98.2211 5.78485 112.441 5.78574 126.196 10.269L126.752 10.45V41.2417L125.665 40.8297C111.35 35.4054 97.4933 35.4021 84.4792 40.8201L83.368 41.2827ZM104.57 35.1422C111.296 35.1422 118.154 36.4009 125.145 38.9183V11.6251C112.067 7.48408 98.557 7.48634 84.9748 11.6317V38.8808C91.2155 36.4123 97.8629 35.144 104.57 35.1422Z" fill="white"/>
<path d="M125.178 51.3202L125.389 46.1878L132.609 31.7754C132.812 31.3656 133.144 31.0343 133.553 30.8323C133.804 30.7068 134.077 30.6327 134.357 30.6144C134.636 30.596 134.916 30.6338 135.181 30.7256C135.488 30.8318 135.766 31.0076 135.994 31.2395C136.222 31.4713 136.393 31.7528 136.495 32.0621C136.538 32.1957 136.569 32.3331 136.586 32.4726C136.637 32.8864 136.565 33.3062 136.377 33.6782L129.147 48.1101L125.178 51.3202Z" fill="#FAA831"/>
<path d="M134.453 30.7111L126.615 46.3557L126.018 46.054L133.598 30.9228C133.863 30.7893 134.155 30.7169 134.453 30.7111Z" fill="#3F3D56"/>
<path d="M136.486 32.4853L128.948 47.5336L128.35 47.2319L136.171 31.6197C136.268 31.767 136.344 31.9264 136.399 32.0937C136.441 32.2211 136.47 32.3522 136.486 32.4853Z" fill="#3F3D56"/>
<path d="M135.736 31.1425L127.812 46.9601L127.215 46.6583L135.148 30.8209C135.233 30.85 135.315 30.8848 135.395 30.9252C135.516 30.9862 135.63 31.059 135.736 31.1425Z" fill="#3F3D56"/>
<path d="M126.085 50.4579L125.287 51.1026L125.354 49.4028C125.628 49.4981 125.924 49.9119 126.085 50.4579Z" fill="#3F3D56"/>
<path d="M47.4413 68.9835L46.4868 66.0765L47.5037 56.5177C47.5317 56.2463 47.6476 55.9916 47.8337 55.7928C47.9473 55.67 48.0841 55.5712 48.2362 55.5021C48.3882 55.4331 48.5525 55.3951 48.7193 55.3906C48.9126 55.3852 49.1044 55.4247 49.2799 55.5061C49.4554 55.5874 49.6098 55.7084 49.7311 55.8595C49.7833 55.9248 49.8291 55.995 49.8678 56.0692C49.9829 56.2892 50.0299 56.5387 50.0029 56.7857L48.9846 66.3575L47.4413 68.9835Z" fill="#FAA831"/>
<path d="M48.3099 55.5358L47.2061 65.9119L46.8098 65.8694L47.8774 55.8339C47.9977 55.7035 48.1454 55.6016 48.3099 55.5358Z" fill="#3F3D56"/>
<path d="M49.8149 56.0973L48.7531 66.0779L48.3568 66.0354L49.4584 55.6808C49.5428 55.7427 49.6188 55.8154 49.6845 55.8972C49.7343 55.9595 49.7779 56.0265 49.8149 56.0973Z" fill="#3F3D56"/>
<path d="M49.1159 55.5063L47.9998 65.9971L47.6035 65.9546L48.721 55.4507C48.7742 55.4491 48.8275 55.4511 48.8804 55.4569C48.9603 55.4655 49.0392 55.4821 49.1159 55.5063Z" fill="#3F3D56"/>
<path d="M47.7668 68.3117L47.4567 68.8392L47.139 67.877C47.3116 67.8725 47.5633 68.0409 47.7668 68.3117Z" fill="#3F3D56"/>
<path d="M150.832 65.5745C150.724 65.7654 150.578 65.933 150.405 66.0676C150.232 66.2023 150.034 66.3013 149.823 66.3591C149.396 66.4759 148.94 66.4176 148.556 66.1971C148.172 65.9767 147.891 65.612 147.775 65.1834C147.658 64.7549 147.716 64.2975 147.936 63.9118C147.94 63.9053 147.944 63.8988 147.947 63.8923C147.994 63.8138 148.046 63.739 148.104 63.6685L146.701 53.6268L146.659 53.326L146.374 51.2769L146.332 50.9816L146.487 50.9889L149.206 51.1136L149.935 51.1467L150.027 53.016L150.544 63.5254C150.814 63.7849 150.989 64.1281 151.041 64.4998C151.094 64.8714 151.02 65.25 150.832 65.5745Z" fill="#FFB8B8"/>
<path d="M146.667 53.4169L150.12 53.099C150.299 53.082 150.464 52.9946 150.579 52.8558C150.694 52.7171 150.75 52.5383 150.734 52.3584L150.095 45.1506C150.033 44.4563 149.699 43.8152 149.166 43.3681C148.634 42.921 147.946 42.7047 147.255 42.7666C146.563 42.8286 145.925 43.1638 145.479 43.6986C145.034 44.2333 144.819 44.9237 144.88 45.6179C144.885 45.6676 144.891 45.7171 144.898 45.7664L145.933 52.8363C145.957 52.9983 146.038 53.1463 146.161 53.2534C146.285 53.3605 146.442 53.4196 146.605 53.4198C146.626 53.4202 146.647 53.4192 146.667 53.4169Z" fill="#CBCBCB"/>
<path d="M149.284 47.5939C149.633 46.6009 149.649 45.5205 149.33 44.5173C149.011 43.5142 148.374 42.6435 147.516 42.0378C146.214 41.1435 144.432 40.8224 142.514 43.1155C140.192 45.9148 138.537 49.2085 137.672 52.7463L145.529 54.0304C145.529 54.0304 148.2 50.7513 149.284 47.5939Z" fill="#CBCBCB"/>
<path d="M136.577 99.2528H134.337L133.272 90.5781H136.578L136.577 99.2528Z" fill="#FFB8B8"/>
<path d="M130.018 101.341H137.058V98.61H132.738C132.016 98.61 131.324 98.8977 130.814 99.4098C130.304 99.922 130.018 100.617 130.018 101.341Z" fill="#2F2E41"/>
<path d="M154.993 97.2912L152.866 97.9971L149.143 90.0965L152.282 89.0547L154.993 97.2912Z" fill="#FFB8B8"/>
<path d="M149.417 101.341L156.102 99.1226L155.248 96.5297L151.146 97.8908C150.461 98.1181 149.894 98.6093 149.57 99.2563C149.246 99.9033 149.191 100.653 149.417 101.341Z" fill="#2F2E41"/>
<path d="M144.352 39.7632C146.831 39.7632 148.84 37.746 148.84 35.2576C148.84 32.7693 146.831 30.7521 144.352 30.7521C141.874 30.7521 139.865 32.7693 139.865 35.2576C139.865 37.746 141.874 39.7632 144.352 39.7632Z" fill="#FFB8B8"/>
<path d="M140.423 96.8381L142.503 83.0532C142.525 82.9061 142.598 82.7713 142.708 82.6718C142.818 82.5724 142.959 82.5144 143.107 82.5079C143.256 82.5014 143.401 82.5468 143.52 82.6362C143.638 82.7256 143.722 82.8535 143.757 82.9981L146.925 96.1349C146.975 96.3362 147.098 96.5115 147.27 96.6263C147.442 96.7412 147.65 96.7874 147.854 96.7559L156.592 95.3459C156.708 95.3273 156.819 95.2839 156.917 95.2188C157.014 95.1536 157.097 95.0682 157.159 94.9683C157.222 94.8684 157.262 94.7563 157.277 94.6395C157.293 94.5226 157.283 94.4039 157.249 94.2911L145.855 56.5751C145.823 56.4679 145.819 56.3541 145.844 56.2449L146.223 54.5939C146.265 54.4149 146.246 54.2271 146.168 54.0604C146.091 53.8937 145.961 53.7577 145.798 53.6741C144.246 52.8792 140.317 51.2268 137.351 53.0368C137.255 53.0958 137.172 53.1738 137.106 53.2661C137.041 53.3584 136.995 53.4631 136.971 53.5738L128.07 95.5769C128.046 95.6911 128.046 95.8092 128.071 95.9233C128.096 96.0374 128.144 96.145 128.213 96.239C128.282 96.3329 128.37 96.4111 128.472 96.4683C128.573 96.5256 128.685 96.5605 128.801 96.571L139.537 97.5362C139.561 97.5384 139.585 97.5396 139.61 97.5396C139.806 97.5392 139.996 97.4683 140.145 97.3396C140.294 97.2109 140.393 97.033 140.422 96.8379L140.423 96.8381Z" fill="#2F2E41"/>
<path d="M147.328 32.0743C146.989 31.87 146.689 31.6081 146.441 31.3002C146.318 31.1446 146.237 30.96 146.206 30.764C146.175 30.568 146.195 30.3673 146.263 30.1812C146.49 29.6789 147.164 29.5208 147.686 29.6912C148.208 29.8616 148.611 30.2731 148.993 30.6695C149.329 31.0181 149.675 31.3835 149.833 31.8419C149.992 32.3003 149.911 32.8817 149.514 33.1599C149.125 33.4329 148.566 33.3212 148.192 33.0281C147.838 32.7075 147.556 32.3155 147.365 31.8779L147.328 32.0743Z" fill="#2F2E41"/>
<path d="M148.848 30.7906C148.873 29.5212 150.314 28.6108 151.559 28.8358C152.803 29.0609 153.76 30.1264 154.239 31.3015C155.251 33.7844 154.491 36.6175 153.516 39.1162C152.541 41.6149 151.335 44.1497 151.477 46.8287C151.573 48.2767 152.057 49.6717 152.878 50.8664C153.698 52.0611 154.825 53.0111 156.139 53.6162C154.734 54.2555 153.055 53.5951 151.875 52.5984C149.253 50.3852 148.241 46.4446 149.47 43.2347C150.076 41.6514 151.144 40.2969 151.978 38.8218C152.812 37.3467 153.424 35.6082 152.993 33.968C152.563 32.3279 150.73 31.0001 149.164 31.6346L148.848 30.7906Z" fill="#2F2E41"/>
<path d="M144.083 37.257C144.474 36.5933 144.869 35.722 144.154 35.1417C143.998 35.0213 143.821 34.9333 143.631 34.8829C143.441 34.8325 143.243 34.8207 143.049 34.8482C142.242 34.9458 141.365 34.986 140.584 34.6919C140.291 34.5908 140.022 34.4317 139.792 34.224C139.562 34.0163 139.375 33.7643 139.244 33.4829C138.842 32.5246 139.346 31.3601 140.188 30.7543C140.703 30.3972 141.312 30.2008 141.938 30.1896C142.564 30.1785 143.179 30.3532 143.706 30.6918C144.797 30.208 146.12 30.4232 147.111 31.0891C148.102 31.755 148.78 32.8214 149.149 33.96C149.488 34.9401 149.547 35.9961 149.317 37.0079C149.133 37.7118 148.783 38.3607 148.295 38.8997C147.808 39.4386 147.199 39.8518 146.519 40.1043C146.254 40.2091 145.967 40.2423 145.685 40.2005C145.403 40.1586 145.138 40.0432 144.915 39.8658C144.552 39.5391 144.273 39.1291 144.103 38.6708C143.954 38.1687 143.874 37.6116 144.083 37.257Z" fill="#2F2E41"/>
<path d="M130.77 41.2774C130.793 41.3763 130.807 41.4769 130.814 41.5782L138.663 46.1243L140.57 45.0216L142.604 47.6948L139.416 49.9765C139.158 50.1609 138.848 50.2564 138.532 50.2486C138.215 50.2409 137.91 50.1303 137.662 49.9335L129.568 43.5229C129.203 43.6588 128.805 43.6798 128.427 43.583C128.05 43.4863 127.71 43.2764 127.454 42.9814C127.199 42.6863 127.038 42.3201 126.995 41.9313C126.952 41.5426 127.027 41.1498 127.211 40.8051C127.396 40.4605 127.68 40.1805 128.027 40.0022C128.374 39.8239 128.767 39.7559 129.153 39.8071C129.539 39.8584 129.901 40.0265 130.189 40.2892C130.478 40.5518 130.68 40.8965 130.769 41.2774L130.77 41.2774Z" fill="#FFB8B8"/>
<path d="M138.925 46.3397L141.462 49.6406C141.534 49.7344 141.626 49.8115 141.73 49.8666C141.835 49.9218 141.95 49.9537 142.068 49.9602C142.186 49.9667 142.303 49.9476 142.413 49.9043C142.523 49.8609 142.623 49.7943 142.705 49.709L145.576 46.715C145.818 46.5356 146.022 46.3101 146.176 46.0514C146.331 45.7927 146.433 45.506 146.477 45.2075C146.521 44.9091 146.506 44.6049 146.433 44.3123C146.359 44.0198 146.229 43.7446 146.05 43.5026C145.871 43.2606 145.645 43.0565 145.387 42.902C145.129 42.7475 144.843 42.6457 144.546 42.6023C144.249 42.559 143.946 42.575 143.655 42.6494C143.363 42.7238 143.09 42.8552 142.849 43.036C142.824 43.0545 142.8 43.0736 142.776 43.0931L139.174 45.115C139.071 45.173 138.982 45.2525 138.912 45.3483C138.842 45.4441 138.794 45.5538 138.77 45.67C138.747 45.7862 138.748 45.9062 138.775 46.0218C138.801 46.1374 138.853 46.2458 138.925 46.3397H138.925Z" fill="#CBCBCB"/>
<path d="M41.9937 98.9711L44.4287 98.9709L45.5872 89.5412L41.9933 89.5414L41.9937 98.9711Z" fill="#A0616A"/>
<path d="M41.3726 98.1729L46.168 98.1727H46.1682C46.9786 98.1727 47.7559 98.496 48.329 99.0714C48.9021 99.6468 49.2241 100.427 49.2241 101.241V101.341L41.3728 101.341L41.3726 98.1729Z" fill="#2F2E41"/>
<path d="M23.0342 97.9129L25.4418 98.2783L27.9912 89.1282L24.8349 88.589L23.0342 97.9129Z" fill="#A0616A"/>
<path d="M22.5389 97.0303L27.2804 97.7499C28.0817 97.8716 28.8023 98.3079 29.2833 98.9628C29.7643 99.6178 29.9665 100.438 29.8454 101.242L29.8305 101.341L22.0673 100.163L22.5389 97.0303Z" fill="#2F2E41"/>
<path d="M30.5419 52.2391L33.2455 52.9503L33.0656 57.3512L33.0433 65.3639C33.3097 65.5489 33.5138 65.8107 33.6288 66.1147C33.7437 66.4187 33.764 66.7506 33.687 67.0664C33.6101 67.3823 33.4394 67.6672 33.1976 67.8835C32.9558 68.0998 32.6543 68.2373 32.3329 68.2779C32.0116 68.3184 31.6856 68.2601 31.398 68.1105C31.1104 67.961 30.8748 67.7273 30.7224 67.4404C30.57 67.1535 30.5079 66.8269 30.5444 66.5038C30.5808 66.1807 30.7141 65.8764 30.9266 65.631L30.0958 57.5889L30.5419 52.2391Z" fill="#A0616A"/>
<path d="M30.0713 47.1982C30.0862 46.7729 30.2228 46.3609 30.4647 46.0115C30.7067 45.662 31.0437 45.3899 31.4356 45.2277C31.8024 45.0629 32.2092 45.0092 32.606 45.0733C33.0027 45.1374 33.3722 45.3164 33.6691 45.5883C33.8825 45.7797 34.0517 46.0156 34.1649 46.2794C34.2782 46.5432 34.3328 46.8287 34.3249 47.1159C34.332 49.694 33.7523 53.4519 33.7464 53.4895L33.7372 53.5493L29.7854 54.8854L30.0713 47.1982Z" fill="#CBCBCB"/>
<path d="M37.1372 54.5167L43.1815 52.9458L45.9755 62.3935L46.0749 97.5899L41.4527 97.5608L39.5206 69.0738L27.2065 95.3963L22.2411 94.7981L33.0656 66.5812C33.0656 66.5812 32.4698 61.5958 34.3566 59.1032L33.9594 56.5108L37.1372 54.5167Z" fill="#2F2E41"/>
<path d="M33.0616 56.8672C32.9771 56.7641 32.9157 56.6439 32.8816 56.5148C32.8475 56.3858 32.8415 56.2508 32.864 56.1192L30.107 47.8148C29.9783 47.4266 29.9646 47.0092 30.0676 46.6133C30.1707 46.2175 30.3859 45.8602 30.6874 45.5848L31.8842 44.4925L32.6953 41.2351L37.3571 42.3792L36.973 43.9217L39.0828 43.5367L43.5266 53.4739L34.2379 57.2016L33.7804 57.2088C33.6429 57.209 33.507 57.1785 33.3826 57.1194C33.2583 57.0603 33.1486 56.9742 33.0616 56.8672Z" fill="#CBCBCB"/>
<path d="M39.532 49.8556L42.1956 49.0057L44.3866 52.8216L48.6337 59.6055C48.9573 59.6189 49.2692 59.7306 49.5282 59.9258C49.7872 60.1211 49.9811 60.3906 50.0842 60.6989C50.1872 61.0072 50.1947 61.3396 50.1055 61.6522C50.0163 61.9648 49.8347 62.2428 49.5847 62.4495C49.3347 62.6562 49.0281 62.7819 48.7054 62.8098C48.3828 62.8378 48.0593 62.7667 47.7777 62.6061C47.4961 62.4454 47.2698 62.2027 47.1286 61.9101C46.9874 61.6174 46.938 61.2887 46.987 60.9672L42.0033 54.6163L39.532 49.8556Z" fill="#A0616A"/>
<path d="M36.4506 45.8477C36.2368 45.4803 36.1329 45.0588 36.1513 44.6337C36.1698 44.2085 36.3097 43.7977 36.5546 43.4503C36.7769 43.1143 37.0922 42.8507 37.4616 42.6919C37.831 42.5331 38.2385 42.4861 38.6342 42.5564C38.9164 42.6037 39.185 42.7122 39.4212 42.8744C39.6573 43.0366 39.8554 43.2485 40.0017 43.4955C41.3802 45.6705 42.891 49.1577 42.906 49.1926L42.93 49.2481L40.3015 52.4981L36.4506 45.8477Z" fill="#CBCBCB"/>
<path d="M36.1444 40.629C38.19 40.629 39.8484 38.964 39.8484 36.9102C39.8484 34.8563 38.19 33.1913 36.1444 33.1913C34.0988 33.1913 32.4405 34.8563 32.4405 36.9102C32.4405 38.964 34.0988 40.629 36.1444 40.629Z" fill="#A0616A"/>
<path d="M29.5988 35.3415C31.5692 35.3415 33.1666 33.7377 33.1666 31.7594C33.1666 29.781 31.5692 28.1772 29.5988 28.1772C27.6283 28.1772 26.0309 29.781 26.0309 31.7594C26.0309 33.7377 27.6283 35.3415 29.5988 35.3415Z" fill="#2F2E41"/>
<path d="M26.5213 34.7256C26.9831 35.0607 27.5181 35.2799 28.0816 35.3649C28.6451 35.4498 29.2206 35.3981 29.76 35.2139C30.2995 35.0297 30.7872 34.7185 31.1823 34.3064C31.5774 33.8942 31.8684 33.393 32.031 32.8447C31.9695 33.336 31.8072 33.8092 31.5543 34.2344C31.3014 34.6596 30.9635 35.0275 30.5618 35.3149C30.1602 35.6024 29.7036 35.8031 29.2208 35.9044C28.738 36.0057 28.2395 36.0054 27.7568 35.9035C27.2742 35.8016 26.8178 35.6004 26.4165 35.3125C26.0152 35.0245 25.6777 34.6562 25.4253 34.2308C25.1729 33.8053 25.0112 33.3319 24.9502 32.8405C24.8892 32.3491 24.9304 31.8503 25.0712 31.3757C24.9912 32.0133 25.0837 32.6608 25.3389 33.2503C25.594 33.8397 26.0025 34.3493 26.5213 34.7256Z" fill="#2F2E41"/>
<path d="M40.6016 34.7296C39.9787 33.61 39.7404 33.1423 38.9373 32.4615C38.2271 31.8594 37.3536 31.6826 36.649 32.2531C35.8155 31.8915 34.888 31.8096 34.0044 32.0193C33.1208 32.2291 32.3282 32.7195 31.7442 33.4176C31.1603 34.1157 30.8162 34.9843 30.7631 35.8944C30.71 36.8044 30.9507 37.7074 31.4494 38.4692C31.9482 39.231 32.6784 39.811 33.5315 40.1229C34.3847 40.4349 35.3153 40.4622 36.1852 40.2008C37.0551 39.9394 37.8177 39.4033 38.36 38.6721C38.9022 37.9408 39.195 37.0535 39.1949 36.1418C39.1943 35.9818 39.1847 35.8218 39.1662 35.6628C39.7786 35.5765 39.9891 34.8159 40.6016 34.7296Z" fill="#2F2E41"/>
<path d="M76.8309 101.379H0.306808C0.253539 101.379 0.202451 101.358 0.164785 101.32C0.127118 101.282 0.105957 101.231 0.105957 101.177C0.105957 101.124 0.127118 101.073 0.164785 101.035C0.202451 100.997 0.253539 100.976 0.306808 100.976H76.8309C76.8842 100.976 76.9353 100.997 76.9729 101.035C77.0106 101.073 77.0318 101.124 77.0318 101.177C77.0318 101.231 77.0106 101.282 76.9729 101.32C76.9353 101.358 76.8842 101.379 76.8309 101.379Z" fill="#CBCBCB"/>
<path d="M179.064 101.379H102.54C102.487 101.379 102.435 101.358 102.398 101.32C102.36 101.282 102.339 101.231 102.339 101.177C102.339 101.124 102.36 101.073 102.398 101.035C102.435 100.997 102.487 100.976 102.54 100.976H179.064C179.117 100.976 179.168 100.997 179.206 101.035C179.244 101.073 179.265 101.124 179.265 101.177C179.265 101.231 179.244 101.282 179.206 101.32C179.168 101.358 179.117 101.379 179.064 101.379Z" fill="#CBCBCB"/>
<path d="M79.3008 4.38147H78.8991V65.4916H79.3008V4.38147Z" fill="#CBCBCB"/>
</g>
<defs>
<clipPath id="clip0_40_730">
<rect width="179.159" height="100.98" fill="white" transform="translate(0.105957 0.398743)"/>
</clipPath>
</defs>
</svg>
