<svg width="145" height="112" viewBox="0 0 145 112" fill="none" xmlns="http://www.w3.org/2000/svg">
<g clip-path="url(#clip0_40_671)">
<path d="M102.967 81.9497H25.3485C24.6569 81.9489 23.9938 81.6638 23.5048 81.1571C23.0158 80.6504 22.7407 79.9633 22.7399 79.2467V13.7579C22.7407 13.0413 23.0158 12.3543 23.5048 11.8475C23.9938 11.3408 24.6569 11.0558 25.3485 11.0549H102.967C103.659 11.0558 104.322 11.3408 104.811 11.8475C105.3 12.3543 105.575 13.0413 105.576 13.7579V79.2467C105.575 79.9633 105.3 80.6504 104.811 81.1571C104.322 81.6638 103.659 81.9489 102.967 81.9497Z" fill="#E6E6E6"/>
<path d="M27.1084 12.9788C26.4422 12.9796 25.8036 13.2542 25.3325 13.7423C24.8614 14.2305 24.5965 14.8923 24.5957 15.5826V77.4235C24.5965 78.1138 24.8615 78.7756 25.3325 79.2637C25.8036 79.7518 26.4423 80.0263 27.1084 80.0271H80.2355C86.462 80.0198 92.4314 77.4536 96.8342 72.8915C101.237 68.3294 103.714 62.144 103.721 55.6923V15.5826C103.72 14.8923 103.455 14.2305 102.984 13.7423C102.513 13.2542 101.874 12.9796 101.208 12.9788L27.1084 12.9788Z" fill="white"/>
<path d="M88.8135 40.7915H74.7394C74.4458 40.7911 74.1644 40.6701 73.9568 40.4551C73.7493 40.24 73.6325 39.9484 73.6322 39.6442V32.3858C73.6325 32.0816 73.7493 31.79 73.9568 31.575C74.1644 31.3599 74.4458 31.2389 74.7394 31.2386H88.8135C89.107 31.2389 89.3884 31.3599 89.596 31.575C89.8036 31.79 89.9203 32.0816 89.9206 32.3858C90.7915 34.9544 90.9152 37.395 89.9206 39.6442C89.9203 39.9484 89.8036 40.24 89.596 40.4551C89.3884 40.6701 89.107 40.7911 88.8135 40.7915Z" fill="#E6E6E6"/>
<path d="M87.1461 40.09H75.1887C74.9393 40.0897 74.7002 39.9869 74.5239 39.8042C74.3475 39.6214 74.2483 39.3737 74.248 39.1153V32.9485C74.2483 32.6901 74.3475 32.4423 74.5239 32.2596C74.7002 32.0769 74.9393 31.9741 75.1887 31.9738H87.1461C87.3955 31.9741 87.6346 32.0769 87.8109 32.2596C87.9873 32.4423 88.0865 32.6901 88.0867 32.9485C88.8937 35.1447 89.0236 37.2229 88.0867 39.1153C88.0865 39.3737 87.9873 39.6214 87.8109 39.8042C87.6346 39.9869 87.3955 40.0897 87.1461 40.09Z" fill="white"/>
<path d="M86.5013 44.5936H77.0203C76.7414 44.5941 76.4738 44.4797 76.2762 44.2757C76.0787 44.0717 75.9674 43.7947 75.9669 43.5057C75.9664 43.2167 76.0767 42.9394 76.2735 42.7346C76.4703 42.5298 76.7375 42.4144 77.0164 42.4138H86.5013C86.7799 42.4143 87.0469 42.5294 87.2438 42.7337C87.4406 42.9381 87.5511 43.215 87.5511 43.5037C87.5511 43.7924 87.4406 44.0693 87.2438 44.2737C87.0469 44.478 86.7799 44.5931 86.5013 44.5936Z" fill="#E6E6E6"/>
<path d="M80.1266 33.639C80.0176 33.6394 79.9131 33.6845 79.836 33.7645C79.759 33.8444 79.7156 33.9528 79.7153 34.0658V38.6857C79.7153 38.7603 79.7342 38.8337 79.7701 38.8983C79.806 38.963 79.8577 39.0167 79.92 39.0542C79.9822 39.0917 80.0529 39.1116 80.1249 39.1119C80.1969 39.1122 80.2677 39.0929 80.3302 39.0559L84.2656 36.7308C84.3289 36.6935 84.3814 36.6395 84.4179 36.5742C84.4544 36.509 84.4736 36.4349 84.4734 36.3595C84.4732 36.284 84.4536 36.21 84.4168 36.145C84.38 36.08 84.3271 36.0262 84.2637 35.9893L80.3285 33.6943C80.2669 33.6581 80.1974 33.6391 80.1266 33.639Z" fill="#E6E6E6"/>
<path d="M137.542 102.54C137.325 102.254 137.03 102.042 136.695 101.931C136.361 101.82 136.002 101.816 135.665 101.918L135.592 101.941L134.931 104.614C134.832 104.216 134.62 103.316 134.486 102.436L134.475 102.363L134.409 102.393C133.719 102.709 133.069 103.115 132.476 103.6C131.427 104.473 130.573 105.572 129.974 106.821C129.375 108.07 129.047 109.439 129.01 110.834L129.009 110.885L129.008 110.917L129.095 110.885L130.973 110.19C131.804 110.265 132.641 110.148 133.423 109.846C134.205 109.544 134.912 109.065 135.493 108.443C136.251 107.614 136.772 106.548 137.275 105.516C137.422 105.215 137.573 104.905 137.727 104.607C137.899 104.283 137.973 103.912 137.94 103.544C137.907 103.175 137.768 102.826 137.542 102.54Z" fill="#F2F2F2"/>
<path d="M89.5936 34.3706C89.6313 34.5729 89.7114 34.7643 89.8281 34.9311C89.9449 35.098 90.0955 35.2362 90.2694 35.3362C90.4434 35.4362 90.6363 35.4955 90.8347 35.5098C91.0331 35.5242 91.2322 35.4933 91.4178 35.4193L97.0293 42.1834L97.7397 39.6864L92.1765 33.498C92.0359 33.183 91.7887 32.9325 91.4817 32.7938C91.1747 32.6551 90.8293 32.6379 90.511 32.7455C90.1926 32.853 89.9233 33.0779 89.7543 33.3774C89.5852 33.6769 89.5281 34.0303 89.5936 34.3706Z" fill="#FFB8B8"/>
<path d="M112.209 109.268H110.352L109.469 101.846H112.21L112.209 109.268Z" fill="#FFB6B6"/>
<path d="M112.16 108.639L110.177 107.804L110.12 107.78L109.025 108.639C108.407 108.64 107.814 108.894 107.377 109.347C106.94 109.8 106.695 110.414 106.695 111.054V111.133H112.682V108.639H112.16Z" fill="#2F2E41"/>
<path d="M125.457 109.268H123.6L122.716 101.846H125.457L125.457 109.268Z" fill="#FFB6B6"/>
<path d="M125.407 108.639L123.424 107.804L123.368 107.78L122.273 108.639C121.655 108.64 121.062 108.894 120.625 109.347C120.188 109.8 119.942 110.414 119.942 111.054V111.133H125.93V108.639H125.407Z" fill="#2F2E41"/>
<path d="M121.074 64.9464C121.074 64.9464 123.403 67.4573 123.403 69.5204C123.403 71.5836 122.821 74.4164 123.403 75.0364C123.985 75.6564 124.713 76.4106 123.84 77.3157C122.966 78.2207 122.53 78.6733 123.112 79.2767C123.694 79.88 123.403 90.4392 123.403 90.4392L126.46 104.619H122.609L117.726 90.4392L116.415 78.6733L112.178 89.9866L112.646 104.74L108.62 104.619L106.953 88.9307C106.953 88.9307 109.428 74.0078 108.991 73.6253C108.554 73.2429 108.991 72.4708 108.991 72.4708L110.156 66.7565L121.074 64.9464Z" fill="#2F2E41"/>
<path d="M116.513 47.1437C116.513 47.1437 117.305 43.9099 113.657 42.9828C110.008 42.0556 99.5778 40.8644 99.5778 40.8644L94.3067 35.0688L92.5206 37.7565L98.4296 45.3652L112.431 48.3451L116.513 47.1437Z" fill="#3F3D56"/>
<path d="M93.3887 37.5584C93.5523 37.3386 93.6804 37.0927 93.7679 36.8304L94.5238 34.9057L94.3276 34.8972C94.0561 34.8443 93.7768 34.8514 93.5081 34.9181C93.2394 34.9848 92.9874 35.1096 92.7685 35.2843C92.5496 35.459 92.3688 35.6797 92.2379 35.9318C92.1071 36.184 92.0291 36.4619 92.0092 36.7475C91.9844 36.9945 92.0272 37.2437 92.1327 37.4667C92.1864 37.5772 92.2646 37.673 92.3609 37.7462C92.4573 37.8194 92.5689 37.8679 92.6868 37.8878C92.8207 37.8952 92.9544 37.8691 93.0765 37.8118C93.1987 37.7545 93.3057 37.6676 93.3887 37.5584Z" fill="#E6E6E6"/>
<path d="M109.412 67.5273L108.975 70.8077C108.975 70.8077 109.849 71.7797 110.286 71.6582C110.722 71.5367 112.324 70.8294 112.324 70.8294C112.324 70.8294 114.216 71.9012 115.235 72.0227C116.254 72.1442 121.641 71.4152 121.786 71.0507C121.932 70.6862 123.624 69.2594 123.624 69.2594L122.951 65.0973L109.412 67.5273Z" fill="#E6E6E6"/>
<path d="M123.596 56.0511C123.596 56.0511 123.226 59.2143 123.517 59.5055C123.808 59.7951 123.226 61.6279 122.644 62.8346C122.061 64.0414 123.08 64.1922 123.08 65.0973C123.08 66.0024 123.517 69.3209 123.517 69.3209C123.517 69.3209 119.004 69.6226 118.276 68.8684C117.548 68.1142 116.384 68.7176 114.783 70.3768C113.181 72.0361 109.703 70.6785 108.975 69.9243C108.248 69.1701 109.542 66.4549 109.978 65.9284C110.415 65.402 109.558 66.0114 109.121 64.3431C108.684 62.6747 109.542 62.8346 110.27 62.0804C110.997 61.3262 110.27 59.9686 109.687 58.611C109.105 57.2534 109.542 47.1468 109.542 44.7333C109.542 42.3197 112.744 42.0181 112.744 42.0181L114.012 40.3663L114.944 39.152L116.77 39.0766L116.818 39.0751L118.584 39.0012L119.441 40.036L121.333 42.3197L123.517 42.7723C125.264 43.3757 124.827 47.1468 124.827 47.1468L123.596 56.0511Z" fill="#3F3D56"/>
<path d="M116.68 38.4222C118.746 38.4222 120.422 36.6862 120.422 34.5447C120.422 32.4033 118.746 30.6672 116.68 30.6672C114.613 30.6672 112.938 32.4033 112.938 34.5447C112.938 36.6862 114.613 38.4222 116.68 38.4222Z" fill="#FFB6B6"/>
<path d="M121.018 33.2403C119.989 32.5863 120.121 30.8761 119.129 30.2789C118.636 29.9845 118.082 29.8178 117.514 29.7931C116.945 29.7683 116.38 29.8863 115.865 30.1368C115.166 29.8272 114.329 30.0743 113.77 30.6334C113.212 31.1926 112.909 32.0175 112.82 32.847C112.756 33.6805 112.813 34.5193 112.991 35.3349C113.047 35.0072 113.102 34.6795 113.158 34.3518L116.108 33.6838C115.847 33.9269 115.585 34.17 115.324 34.4131C116.66 34.7283 118.062 34.5012 119.242 33.7784C120.526 34.3749 120.293 35.7147 119.166 37.4927C119.603 38.2469 122.191 33.9856 121.018 33.2403Z" fill="#2F2E41"/>
<path d="M119.441 40.0365C119.433 40.0436 119.424 40.0501 119.415 40.0561C119.106 40.2468 118.753 40.346 118.394 40.3429C117.924 40.3835 117.458 40.2319 117.094 39.9203C116.904 39.7332 116.145 40.1286 115.647 40.3474C115.125 40.5718 114.54 40.5788 114.012 40.367L114.944 39.1521L116.48 38.7992H116.863L118.584 39.0012L119.441 40.0365Z" fill="#E6E6E6"/>
<path d="M144.567 111.318L92.4776 111.379C92.4476 111.379 92.4179 111.374 92.3902 111.362C92.3624 111.35 92.3372 111.333 92.3159 111.311C92.2946 111.289 92.2776 111.263 92.266 111.234C92.2544 111.206 92.2483 111.175 92.2482 111.144C92.248 111.113 92.2538 111.082 92.2651 111.053C92.2764 111.025 92.2931 110.998 92.3142 110.976C92.3353 110.954 92.3603 110.937 92.388 110.925C92.4156 110.913 92.4452 110.906 92.4752 110.906H92.4776L144.567 110.845C144.627 110.845 144.685 110.87 144.728 110.915C144.77 110.959 144.794 111.019 144.794 111.082C144.794 111.144 144.77 111.204 144.728 111.249C144.685 111.293 144.627 111.318 144.567 111.318Z" fill="#CACACA"/>
<path d="M82.1971 31.8974H81.8137V3.48651H96.8908V3.88375H82.1971V31.8974Z" fill="#3F3D56"/>
<path d="M108.617 0.973816H98.4574C97.7966 0.973816 97.1627 1.24585 96.6954 1.73008C96.2281 2.2143 95.9656 2.87105 95.9656 3.55585C95.9656 4.24064 96.2281 4.89739 96.6954 5.38162C97.1627 5.86584 97.7966 6.13787 98.4574 6.13787H108.617C109.277 6.13787 109.911 5.86584 110.379 5.38162C110.846 4.89739 111.108 4.24064 111.108 3.55585C111.108 2.87105 110.846 2.2143 110.379 1.73008C109.911 1.24585 109.277 0.973816 108.617 0.973816Z" fill="#FAA831"/>
<path d="M81.7831 34.4966C83.0477 34.4966 84.0729 33.4343 84.0729 32.1239C84.0729 30.8135 83.0477 29.7512 81.7831 29.7512C80.5185 29.7512 79.4933 30.8135 79.4933 32.1239C79.4933 33.4343 80.5185 34.4966 81.7831 34.4966Z" fill="#FAA831"/>
<path d="M54.1903 41.0394L64.2356 38.6307L67.119 37.9393C67.4797 37.8528 67.3298 37.2775 66.969 37.364L56.9237 39.7727L54.0403 40.4641C53.6796 40.5505 53.8295 41.1259 54.1903 41.0394Z" fill="#F2F2F2"/>
<path d="M64.5634 34.7666L69.941 37.3299C70.1245 37.3956 70.2964 37.492 70.4499 37.6153C70.5983 37.766 70.4903 37.9109 70.3691 38.0421C70.0072 38.3923 69.625 38.7192 69.2245 39.021L66.9335 40.951C66.6459 41.1933 67.0517 41.6161 67.3366 41.3761L69.332 39.6951L70.3298 38.8546C70.6124 38.6165 70.9565 38.3735 71.0701 37.9941C71.3087 37.1972 70.3669 36.8803 69.8435 36.6308L67.5017 35.5146L64.8562 34.2536C64.5228 34.0947 64.2274 34.6065 64.5634 34.7666Z" fill="#F2F2F2"/>
<path d="M138.774 54.2795C137.816 53.6065 136.652 53.3564 135.514 53.2715C134.221 53.1986 132.925 53.2002 131.632 53.2763C130.289 53.3314 128.949 53.4321 127.611 53.5784C126.276 53.7249 124.946 53.9168 123.621 54.1541C122.435 54.3454 121.262 54.6116 120.107 54.9511C119.015 55.2644 117.985 55.7795 117.069 56.4715C116.264 57.0983 115.646 57.9464 115.283 58.9194C114.927 59.8319 114.867 60.8394 115.111 61.7906C115.241 62.2526 115.464 62.6811 115.764 63.048C116.112 63.4505 116.523 63.7882 116.981 64.0463C117.931 64.6086 119.008 64.9467 119.868 65.6666C120.094 65.8549 120.301 66.0677 120.484 66.3015C120.608 66.4824 120.78 66.6225 120.979 66.7051C121.168 66.7733 121.371 66.7822 121.565 66.7306C121.758 66.679 121.932 66.5693 122.066 66.4152C122.238 66.1711 122.381 65.9067 122.493 65.6274L122.947 64.7209C122.977 64.6416 123.015 64.5657 123.06 64.4943C123.094 64.4523 123.033 64.4952 123.045 64.4841C123.051 64.478 123.064 64.4782 123.072 64.4734C123.109 64.454 123.148 64.4385 123.189 64.4269C123.608 64.2612 124.03 64.1006 124.453 63.9453C126.015 63.3684 127.596 62.8367 129.202 62.4061C130.028 62.1764 130.866 61.9947 131.712 61.8619C132.807 61.7002 133.92 61.719 135.02 61.6085C136.205 61.4894 137.428 61.2409 138.444 60.5648C139.284 60.0358 139.931 59.233 140.285 58.2822C140.438 57.829 140.49 57.346 140.438 56.8689C140.306 55.7895 139.625 54.8779 138.774 54.2795Z" fill="#E6E6E6"/>
<path d="M136.813 54.886C135.947 54.2779 134.895 54.0519 133.867 53.9752C132.699 53.9093 131.528 53.9107 130.359 53.9795C129.146 54.0293 127.934 54.1203 126.726 54.2525C125.519 54.3848 124.317 54.5582 123.12 54.7727C122.048 54.9456 120.988 55.1861 119.945 55.4929C118.957 55.7761 118.027 56.2415 117.199 56.8669C116.472 57.4333 115.913 58.1997 115.585 59.079C115.264 59.9036 115.209 60.8141 115.43 61.6736C115.547 62.0912 115.748 62.4783 116.02 62.8099C116.334 63.1736 116.706 63.4788 117.119 63.712C117.978 64.2202 118.951 64.5257 119.728 65.1762C119.933 65.3464 120.12 65.5388 120.285 65.75C120.397 65.9135 120.553 66.04 120.732 66.1147C120.903 66.1764 121.087 66.1844 121.262 66.1378C121.436 66.0912 121.594 65.992 121.714 65.8527C121.87 65.6322 122 65.3932 122.101 65.1408L122.51 64.3217C122.538 64.25 122.572 64.1814 122.613 64.1169C122.644 64.0789 122.589 64.1177 122.599 64.1077C122.605 64.1022 122.617 64.1023 122.623 64.098C122.657 64.0805 122.693 64.0664 122.729 64.0559C123.108 63.9062 123.489 63.7611 123.871 63.6208C125.283 63.0995 126.712 62.619 128.163 62.2298C128.91 62.0223 129.667 61.8581 130.431 61.738C131.421 61.5919 132.426 61.6089 133.421 61.509C134.492 61.4015 135.597 61.1769 136.515 60.5659C137.274 60.0878 137.859 59.3624 138.178 58.5031C138.316 58.0936 138.364 57.6571 138.317 57.226C138.198 56.2506 137.583 55.4268 136.813 54.886Z" fill="white"/>
<path d="M135 55.9843L120.892 58.6805C120.851 58.6884 120.81 58.6881 120.77 58.6794C120.729 58.6708 120.691 58.654 120.657 58.63C120.623 58.606 120.594 58.5753 120.572 58.5397C120.549 58.5041 120.534 58.4642 120.526 58.4224C120.519 58.3805 120.519 58.3376 120.528 58.2959C120.536 58.2543 120.553 58.2148 120.576 58.1797C120.599 58.1446 120.629 58.1146 120.663 58.0915C120.698 58.0683 120.736 58.0524 120.777 58.0447L120.778 58.0443L134.886 55.3481C134.927 55.3404 134.968 55.341 135.008 55.3499C135.048 55.3588 135.086 55.3757 135.12 55.3998C135.154 55.4239 135.183 55.4546 135.205 55.4903C135.227 55.5259 135.243 55.5658 135.25 55.6075C135.257 55.6493 135.257 55.6922 135.248 55.7337C135.24 55.7753 135.223 55.8146 135.2 55.8496C135.177 55.8846 135.147 55.9145 135.113 55.9376C135.078 55.9607 135.04 55.9766 135 55.9843Z" fill="#E6E6E6"/>
<path d="M135.347 57.9367L121.239 60.6329C121.199 60.6408 121.157 60.6405 121.117 60.6318C121.077 60.6231 121.039 60.6063 121.005 60.5823C120.971 60.5584 120.942 60.5277 120.919 60.4921C120.897 60.4564 120.881 60.4166 120.874 60.3748C120.866 60.3329 120.867 60.29 120.875 60.2483C120.884 60.2067 120.9 60.1672 120.923 60.1321C120.947 60.097 120.976 60.067 121.011 60.0439C121.045 60.0207 121.084 60.0048 121.124 59.9971L121.126 59.9967L135.234 57.3005C135.274 57.2928 135.316 57.2934 135.356 57.3023C135.396 57.3112 135.434 57.3281 135.468 57.3522C135.501 57.3763 135.53 57.407 135.552 57.4427C135.575 57.4783 135.59 57.5182 135.597 57.5599C135.605 57.6017 135.604 57.6446 135.596 57.6861C135.587 57.7277 135.571 57.767 135.548 57.802C135.524 57.837 135.495 57.8669 135.46 57.89C135.426 57.9131 135.387 57.929 135.347 57.9367Z" fill="#E6E6E6"/>
<path d="M123.231 62.2712L121.587 62.5855C121.505 62.6007 121.422 62.582 121.354 62.5333C121.286 62.4846 121.239 62.41 121.224 62.3258C121.209 62.2416 121.227 62.1547 121.274 62.0841C121.32 62.0135 121.392 61.9649 121.473 61.9491L123.117 61.6347C123.199 61.6194 123.283 61.6382 123.351 61.6868C123.419 61.7355 123.465 61.8102 123.48 61.8944C123.495 61.9787 123.477 62.0656 123.431 62.1363C123.384 62.2069 123.312 62.2554 123.231 62.2712Z" fill="#E6E6E6"/>
<path d="M122.04 70.3873C122.76 70.2496 123.237 69.5327 123.104 68.7861C122.971 68.0394 122.279 67.5458 121.558 67.6835C120.838 67.8212 120.361 68.5381 120.494 69.2847C120.627 70.0314 121.319 70.525 122.04 70.3873Z" fill="#D1D3D4"/>
<path d="M49.0281 40.4238H36.9778C36.4184 40.4231 35.8821 40.1925 35.4865 39.7826C35.091 39.3728 34.8685 38.8171 34.8678 38.2374V30.0082C34.8685 29.4285 35.091 28.8728 35.4865 28.463C35.8821 28.0531 36.4184 27.8225 36.9778 27.8218H49.0281C49.5875 27.8225 50.1238 28.0531 50.5194 28.463C50.9149 28.8728 51.1374 29.4285 51.1381 30.0082V38.2374C51.1374 38.8171 50.9149 39.3728 50.5194 39.7827C50.1238 40.1925 49.5875 40.4231 49.0281 40.4238Z" fill="#E6E6E6"/>
<path d="M47.7039 39.9804H37.2164C36.7295 39.9798 36.2628 39.7792 35.9185 39.4224C35.5742 39.0657 35.3806 38.5821 35.38 38.0776V30.9156C35.3806 30.4111 35.5742 29.9274 35.9185 29.5707C36.2628 29.214 36.7295 29.0133 37.2164 29.0128H47.7039C48.1908 29.0133 48.6576 29.214 49.0018 29.5707C49.3461 29.9274 49.5397 30.4111 49.5403 30.9156V38.0776C49.5397 38.5821 49.3461 39.0657 49.0018 39.4224C48.6576 39.7792 48.1908 39.9798 47.7039 39.9804Z" fill="white"/>
<path d="M50.7254 47.8381H35.2633C35.1677 47.8379 35.0762 47.7984 35.0087 47.7283C34.9412 47.6582 34.9033 47.5632 34.9033 47.4641C34.9033 47.3651 34.9412 47.2701 35.0087 47.1999C35.0762 47.1298 35.1677 47.0903 35.2633 47.0901H50.7254C50.821 47.0903 50.9125 47.1298 50.98 47.1999C51.0475 47.2701 51.0854 47.3651 51.0854 47.4641C51.0854 47.5632 51.0475 47.6582 50.98 47.7283C50.9125 47.7984 50.821 47.8379 50.7254 47.8381Z" fill="#E6E6E6"/>
<path d="M50.7254 45.702H35.2633C35.1677 45.7017 35.0762 45.6622 35.0087 45.5921C34.9412 45.522 34.9033 45.427 34.9033 45.3279C34.9033 45.2289 34.9412 45.1339 35.0087 45.0638C35.0762 44.9937 35.1677 44.9541 35.2633 44.9539H50.7254C50.821 44.9541 50.9125 44.9937 50.98 45.0638C51.0475 45.1339 51.0854 45.2289 51.0854 45.3279C51.0854 45.427 51.0475 45.522 50.98 45.5921C50.9125 45.6622 50.821 45.7017 50.7254 45.702Z" fill="#E6E6E6"/>
<path d="M50.7254 49.9744H35.2632C35.1676 49.9744 35.0758 49.935 35.0081 49.8648C34.9405 49.7947 34.9025 49.6995 34.9025 49.6003C34.9025 49.5011 34.9405 49.406 35.0081 49.3359C35.0758 49.2657 35.1676 49.2263 35.2632 49.2263H50.7254C50.8211 49.2263 50.9128 49.2657 50.9805 49.3359C51.0482 49.406 51.0862 49.5011 51.0862 49.6003C51.0862 49.6995 51.0482 49.7947 50.9805 49.8648C50.9128 49.935 50.8211 49.9744 50.7254 49.9744Z" fill="#E6E6E6"/>
<path d="M50.7254 52.1106H35.2632C35.1676 52.1106 35.0758 52.0712 35.0081 52.001C34.9405 51.9309 34.9025 51.8358 34.9025 51.7366C34.9025 51.6374 34.9405 51.5422 35.0081 51.4721C35.0758 51.402 35.1676 51.3625 35.2632 51.3625H50.7254C50.8211 51.3625 50.9128 51.402 50.9805 51.4721C51.0482 51.5422 51.0862 51.6374 51.0862 51.7366C51.0862 51.8358 51.0482 51.9309 50.9805 52.001C50.9128 52.0712 50.8211 52.1106 50.7254 52.1106Z" fill="#E6E6E6"/>
<path d="M50.7254 54.2468H35.2632C35.1676 54.2468 35.0758 54.2074 35.0081 54.1373C34.9405 54.0671 34.9025 53.972 34.9025 53.8728C34.9025 53.7736 34.9405 53.6785 35.0081 53.6083C35.0758 53.5382 35.1676 53.4988 35.2632 53.4988H50.7254C50.8211 53.4988 50.9128 53.5382 50.9805 53.6083C51.0482 53.6785 51.0862 53.7736 51.0862 53.8728C51.0862 53.972 51.0482 54.0671 50.9805 54.1373C50.9128 54.2074 50.8211 54.2468 50.7254 54.2468Z" fill="#E6E6E6"/>
<path d="M50.7254 56.383H35.2633C35.1677 56.3828 35.0762 56.3433 35.0087 56.2732C34.9412 56.2031 34.9033 56.1081 34.9033 56.009C34.9033 55.91 34.9412 55.815 35.0087 55.7449C35.0762 55.6747 35.1677 55.6352 35.2633 55.635H50.7254C50.821 55.6352 50.9125 55.6747 50.98 55.7449C51.0475 55.815 51.0854 55.91 51.0854 56.009C51.0854 56.1081 51.0475 56.2031 50.98 56.2732C50.9125 56.3433 50.821 56.3828 50.7254 56.383Z" fill="#E6E6E6"/>
<path d="M42.2213 51.4835H42.6047V66.7856H14.8766V66.3883H42.2213V51.4835Z" fill="#3F3D56"/>
<path d="M3.1508 69.2983H13.3099C13.9708 69.2983 14.6046 69.0262 15.072 68.542C15.5393 68.0578 15.8018 67.401 15.8018 66.7162C15.8018 66.0314 15.5393 65.3747 15.072 64.8905C14.6046 64.4063 13.9708 64.1342 13.3099 64.1342H3.1508C2.48992 64.1342 1.8561 64.4063 1.38879 64.8905C0.921472 65.3747 0.658936 66.0314 0.658936 66.7162C0.658936 67.401 0.921472 68.0578 1.38879 68.542C1.8561 69.0262 2.48992 69.2983 3.1508 69.2983Z" fill="#FAA831"/>
<path d="M42.68 52.6365C43.9446 52.6365 44.9698 51.5742 44.9698 50.2638C44.9698 48.9535 43.9446 47.8912 42.68 47.8912C41.4153 47.8912 40.3901 48.9535 40.3901 50.2638C40.3901 51.5742 41.4153 52.6365 42.68 52.6365Z" fill="#FAA831"/>
<path d="M54.5154 50.9232C57.8772 51.6636 57.0221 51.8081 60.3839 52.5484L63.2788 53.186C63.6409 53.2657 63.7401 52.6787 63.3778 52.5989C60.016 51.8585 60.8711 51.714 57.5093 50.9737L54.6144 50.3362C54.2523 50.2564 54.1531 50.8434 54.5154 50.9232Z" fill="#F2F2F2"/>
<path d="M62.2586 49.1908L66.0847 53.8707C66.2241 54.0108 66.3405 54.1735 66.4293 54.3525C66.5022 54.554 66.3452 54.638 66.1818 54.7037C65.7109 54.8624 65.2311 54.9911 64.745 55.089L61.8811 55.8335C61.5215 55.9269 61.7167 56.4879 62.0728 56.3953L64.5672 55.7469L65.8144 55.4227C66.1677 55.3309 66.5787 55.2615 66.8365 54.9676C67.3782 54.3501 66.6542 53.6501 66.2818 53.1946L64.6156 51.1566L62.7334 48.8543C62.4961 48.5642 62.0195 48.8984 62.2586 49.1908Z" fill="#F2F2F2"/>
<path d="M74.3899 69.5912C77.3307 69.5912 79.7148 67.1209 79.7148 64.0736C79.7148 61.0263 77.3307 58.556 74.3899 58.556C71.449 58.556 69.0649 61.0263 69.0649 64.0736C69.0649 67.1209 71.449 69.5912 74.3899 69.5912Z" fill="#E6E6E6"/>
<path d="M73.8708 68.8878C76.1066 68.8878 77.919 67.0097 77.919 64.6931C77.919 62.3764 76.1066 60.4984 73.8708 60.4984C71.6351 60.4984 69.8226 62.3764 69.8226 64.6931C69.8226 67.0097 71.6351 68.8878 73.8708 68.8878Z" fill="white"/>
<path d="M73.1445 67.5648C73.0526 67.5648 72.9619 67.5426 72.8796 67.5C72.7974 67.4574 72.7259 67.3955 72.6707 67.3193L71.218 65.3122C71.1713 65.2477 71.1373 65.1744 71.118 65.0963C71.0986 65.0182 71.0943 64.937 71.1053 64.8572C71.1162 64.7774 71.1423 64.7006 71.1819 64.6313C71.2215 64.5619 71.2739 64.5013 71.3361 64.4529C71.3983 64.4045 71.4691 64.3693 71.5444 64.3492C71.6197 64.3292 71.6982 64.3247 71.7752 64.3361C71.8522 64.3474 71.9263 64.3744 71.9932 64.4154C72.0602 64.4565 72.1187 64.5108 72.1654 64.5752L72.1657 64.5757L73.1161 65.8887L75.5572 62.0947C75.6003 62.0275 75.6557 61.9698 75.7204 61.9249C75.785 61.8799 75.8576 61.8486 75.9339 61.8327C76.0102 61.8169 76.0888 61.8167 76.1652 61.8324C76.2416 61.848 76.3142 61.8791 76.379 61.9238C76.4438 61.9686 76.4994 62.0261 76.5427 62.0932C76.586 62.1602 76.6161 62.2354 76.6314 62.3145C76.6466 62.3936 76.6466 62.4751 76.6314 62.5542C76.6162 62.6333 76.5861 62.7086 76.5429 62.7756L73.6374 67.2915C73.5849 67.3732 73.5142 67.4406 73.4313 67.4881C73.3484 67.5356 73.2557 67.5619 73.161 67.5646C73.1555 67.5647 73.15 67.5648 73.1445 67.5648Z" fill="#E6E6E6"/>
<path d="M124.112 69.7576C124.283 69.6532 124.43 69.511 124.543 69.3412C124.656 69.1714 124.731 68.978 124.764 68.7748C124.797 68.5715 124.786 68.3633 124.733 68.1647C124.68 67.9661 124.585 67.7821 124.456 67.6256L128.731 59.8839L126.223 60.0251L122.454 67.5272C122.215 67.7698 122.07 68.095 122.046 68.4411C122.023 68.7873 122.123 69.1303 122.327 69.4052C122.531 69.6801 122.826 69.8679 123.155 69.9328C123.484 69.9978 123.824 69.9354 124.112 69.7576Z" fill="#FFB8B8"/>
<path d="M119.296 42.6214C119.296 42.6214 123.824 41.113 124.989 44.7332C126.153 48.3535 130.069 58.1584 130.069 58.1584L125.862 67.0583L123.97 64.9464L125.992 58.7618L120.169 49.7111L119.296 42.6214Z" fill="#3F3D56"/>
<path d="M126.007 66.1494C125.87 65.9104 125.697 65.696 125.495 65.5146L124.05 64.0736L123.969 64.2593C123.821 64.501 123.724 64.7724 123.684 65.0557C123.645 65.339 123.663 65.6278 123.738 65.9033C123.814 66.1787 123.945 66.4345 124.122 66.6539C124.3 66.8733 124.52 67.0513 124.768 67.1764C124.981 67.2918 125.22 67.343 125.459 67.3241C125.578 67.3134 125.693 67.2736 125.794 67.2081C125.895 67.1425 125.98 67.053 126.042 66.9469C126.098 66.8208 126.124 66.6825 126.118 66.5437C126.112 66.4049 126.074 66.2697 126.007 66.1494Z" fill="#E6E6E6"/>
<path d="M74.3437 71.4966H73.9603V86.7987H86.929V86.4014H74.3437V71.4966Z" fill="#3F3D56"/>
<path d="M101.147 86.7294C101.146 86.0448 100.883 85.3885 100.416 84.9044C99.9489 84.4203 99.3155 84.1481 98.6548 84.1474H88.4956C87.8348 84.1474 87.201 84.4194 86.7336 84.9037C86.2663 85.3879 86.0038 86.0446 86.0038 86.7294C86.0038 87.4142 86.2663 88.071 86.7336 88.5552C87.201 89.0394 87.8348 89.3115 88.4956 89.3115H98.6548C99.3155 89.3108 99.9489 89.0386 100.416 88.5545C100.883 88.0704 101.146 87.414 101.147 86.7294Z" fill="#FAA831"/>
<path d="M73.885 72.6497C75.1497 72.6497 76.1748 71.5874 76.1748 70.277C76.1748 68.9666 75.1497 67.9044 73.885 67.9044C72.6204 67.9044 71.5952 68.9666 71.5952 70.277C71.5952 71.5874 72.6204 72.6497 73.885 72.6497Z" fill="#FAA831"/>
</g>
<defs>
<clipPath id="clip0_40_671">
<rect width="144.135" height="110.405" fill="white" transform="translate(0.658936 0.973816)"/>
</clipPath>
</defs>
</svg>
