<svg width="140" height="100" viewBox="0 0 148 122" fill="none" xmlns="http://www.w3.org/2000/svg">
<g clip-path="url(#clip0_40_832)">
<path d="M76.7306 18.1012C76.8435 18.4157 77.0262 18.7023 77.2658 18.941C77.5054 19.1797 77.7962 19.3646 78.1176 19.4827C78.439 19.6008 78.7832 19.6492 79.126 19.6246C79.4688 19.5999 79.8019 19.5027 80.1017 19.3399L100.495 25.675L107.244 20.5467L80.9398 16.0861C80.624 15.6164 80.1412 15.2752 79.583 15.1272C79.0248 14.9792 78.4299 15.0347 77.911 15.283C77.3922 15.5314 76.9855 15.9555 76.7679 16.4749C76.5504 16.9943 76.5371 17.5729 76.7306 18.1012Z" fill="#FFB6B6"/>
<path d="M114.503 26.5673C114.503 26.5673 114.318 26.1285 111.878 27.0834C108.849 28.2686 92.7238 27.4762 91.8302 23.2182C91.5449 23.5034 91.1697 23.6886 90.7638 23.7445C90.3579 23.8005 89.9443 23.7241 89.5881 23.5273L92.1089 18.169C93.4211 17.7627 94.1341 17.4622 94.219 17.9797L98.1641 17.7549L114.142 20.3597L114.584 25.7011L114.503 26.5673Z" fill="#F2F2F2"/>
<path d="M109.478 21.1952L117.413 20.5299L124.852 23.8232L129.029 79.7856L112.636 72.4435L105.603 74.328L109.478 21.1952Z" fill="#F2F2F2"/>
<path d="M129 118.864L125.99 118.864L124.558 107.621L129 107.621L129 118.864Z" fill="#FFB6B6"/>
<path d="M129.767 121.689L120.062 121.689V121.57C120.063 120.6 120.461 119.669 121.169 118.983C121.877 118.297 122.838 117.912 123.84 117.912L125.613 116.609L128.92 117.912L129.767 117.912L129.767 121.689Z" fill="#2F2E41"/>
<path d="M117.336 117.027L114.4 117.669L110.446 107.007L114.78 106.06L117.336 117.027Z" fill="#FFB6B6"/>
<path d="M118.728 119.619L109.261 121.689L109.234 121.573C109.013 120.627 109.19 119.634 109.725 118.814C110.26 117.994 111.109 117.413 112.087 117.199L112.087 117.199L113.52 115.55L117.042 116.115L117.869 115.935L118.728 119.619Z" fill="#2F2E41"/>
<path d="M132.812 50.1295C134.223 54.2513 134.074 58.7253 132.473 63.5272L131.788 90.5629C132.92 91.7689 133.093 102.56 131.35 106.081C129.022 110.783 131.163 111.412 129.517 114.531H124.745L122.539 100.399L122.382 88.9438C121.748 87.4904 122.269 82.3755 122.269 82.3755L122.085 71.7693L113.48 90.3488C117.379 93.5805 117.028 104.019 117.092 108.649L118.371 114.113L112.497 114.621L109.905 107.212L106.991 102.646C105.506 94.5564 105.065 88.6172 106.331 86.1912L114.969 55.0666L132.812 50.1295Z" fill="#2F2E41"/>
<path d="M133.423 48.7539L132.636 47.2301C131.673 41.4518 130.722 36.0623 132.014 31.2145C132.096 26.9825 130.745 23.0066 126.995 20.8356L125.303 19.8557L124.447 17.752L116.561 17.9386L116.538 20.6962L113.714 25.0586V25.0766L113.89 48.8146L114.67 51.2643L113.493 54.1141L114.118 55.9323L129.664 53.5253L131.471 53.2443C131.68 53.1797 131.882 53.0946 132.073 52.9904C132.721 52.6415 133.23 52.0913 133.516 51.4284C133.532 51.3902 133.546 51.3542 133.56 51.316C133.682 51.0066 133.753 50.6804 133.769 50.3496C133.797 49.7977 133.678 49.2482 133.423 48.7539Z" fill="#3F3D56"/>
<path opacity="0.2" d="M133.769 50.3496C133.752 50.6804 133.682 51.0066 133.56 51.316L132.073 52.9904C131.882 53.0945 131.68 53.1796 131.471 53.2443L129.664 53.5253L132.279 48.7628L126.531 36.5747L133.769 50.3496Z" fill="black"/>
<path d="M11.6329 99.5924C9.80641 99.6104 7.9813 99.488 6.17477 99.2264C4.49269 98.9508 3.63977 98.5595 3.63977 98.0632L3.64039 98.0542L6.77833 74.9162L5.19793 70.5287C5.13158 70.3444 5.112 70.1474 5.14084 69.9543C5.16967 69.7612 5.24607 69.5777 5.36359 69.4192C5.48111 69.2608 5.63629 69.132 5.81602 69.0439C5.99575 68.9557 6.19474 68.9107 6.3962 68.9128L16.7892 69.0176C16.9869 69.0196 17.1814 69.0668 17.3567 69.1555C17.5321 69.2441 17.6833 69.3716 17.7981 69.5275C17.9129 69.6835 17.988 69.8635 18.0174 70.053C18.0467 70.2424 18.0293 70.4358 17.9668 70.6176L16.4874 74.9157L19.6254 98.0542C19.6261 99.2704 14.6017 99.5924 11.6329 99.5924Z" fill="#F2F2F2"/>
<path d="M10.7861 96.3352H5.70941V96.6117H10.7861V96.3352Z" fill="#CCCCCC"/>
<path d="M10.7861 94.6764H5.70941V94.9529H10.7861V94.6764Z" fill="#CCCCCC"/>
<path d="M10.7861 93.0176H5.70941V93.2941H10.7861V93.0176Z" fill="#CCCCCC"/>
<path d="M10.7861 91.3588H5.70941V91.6353H10.7861V91.3588Z" fill="#CCCCCC"/>
<path d="M10.7861 89.7H5.70941V89.9764H10.7861V89.7Z" fill="#CCCCCC"/>
<path d="M57.3081 99.5924C55.4816 99.6104 53.6565 99.488 51.8499 99.2264C50.1679 98.9508 49.3149 98.5595 49.3149 98.0632L49.3156 98.0542L52.4535 74.9162L50.8731 70.5287C50.8068 70.3444 50.7872 70.1474 50.816 69.9543C50.8448 69.7612 50.9212 69.5777 51.0388 69.4192C51.1563 69.2608 51.3115 69.132 51.4912 69.0439C51.6709 68.9557 51.8699 68.9107 52.0714 68.9128L62.4643 69.0176C62.6621 69.0196 62.8566 69.0668 63.0319 69.1555C63.2072 69.2441 63.3585 69.3716 63.4733 69.5275C63.5881 69.6835 63.6632 69.8635 63.6925 70.053C63.7218 70.2424 63.7045 70.4358 63.642 70.6176L62.1626 74.9157L65.3006 98.0542C65.3012 99.2704 60.2769 99.5924 57.3081 99.5924Z" fill="#F2F2F2"/>
<path d="M56.4612 96.3352H51.3846V96.6117H56.4612V96.3352Z" fill="#CCCCCC"/>
<path d="M56.4612 94.6764H51.3846V94.9529H56.4612V94.6764Z" fill="#CCCCCC"/>
<path d="M56.4612 93.0176H51.3846V93.2941H56.4612V93.0176Z" fill="#CCCCCC"/>
<path d="M56.4612 91.3588H51.3846V91.6353H56.4612V91.3588Z" fill="#CCCCCC"/>
<path d="M56.4612 89.7H51.3846V89.9764H56.4612V89.7Z" fill="#CCCCCC"/>
<path d="M35.8978 99.5924C34.0713 99.6104 32.2462 99.488 30.4397 99.2264C28.7576 98.9508 27.9047 98.5595 27.9047 98.0632L27.9053 98.0542L31.0432 74.9162L29.4628 70.5287C29.3965 70.3444 29.3769 70.1474 29.4057 69.9543C29.4346 69.7612 29.511 69.5777 29.6285 69.4192C29.746 69.2608 29.9012 69.132 30.0809 69.0439C30.2606 68.9557 30.4596 68.9107 30.6611 68.9128L41.0541 69.0176C41.2518 69.0196 41.4463 69.0668 41.6216 69.1555C41.797 69.2441 41.9482 69.3716 42.063 69.5275C42.1778 69.6835 42.2529 69.8635 42.2822 70.053C42.3116 70.2424 42.2942 70.4358 42.2317 70.6176L40.7523 74.9157L43.8903 98.0542C43.891 99.2704 38.8666 99.5924 35.8978 99.5924Z" fill="#F2F2F2"/>
<path d="M35.051 96.3352H29.9744V96.6117H35.051V96.3352Z" fill="#CCCCCC"/>
<path d="M35.051 94.6764H29.9744V94.9529H35.051V94.6764Z" fill="#CCCCCC"/>
<path d="M35.051 93.0176H29.9744V93.2941H35.051V93.0176Z" fill="#CCCCCC"/>
<path d="M35.051 91.3588H29.9744V91.6353H35.051V91.3588Z" fill="#CCCCCC"/>
<path d="M35.051 89.7H29.9744V89.9764H35.051V89.7Z" fill="#CCCCCC"/>
<path d="M69.6546 101.312H59.9487V85.5529H69.6546C70.1846 85.5529 70.6929 85.349 71.0676 84.9861C71.4424 84.6232 71.6529 84.1309 71.6529 83.6177C71.6529 83.1044 71.4424 82.6121 71.0676 82.2492C70.6929 81.8863 70.1846 81.6824 69.6546 81.6824H1.99829C1.46831 81.6824 0.960038 81.8863 0.585286 82.2492C0.210534 82.6121 0 83.1044 0 83.6177C0 84.1309 0.210534 84.6232 0.585286 84.9861C0.960038 85.349 1.46831 85.5529 1.99829 85.5529H10.2769V101.312H1.99829C1.46831 101.312 0.960038 101.516 0.585286 101.878C0.210535 102.241 0 102.734 0 103.247C0 103.76 0.210535 104.252 0.585286 104.615C0.960038 104.978 1.46831 105.182 1.99829 105.182H69.6546C69.9172 105.182 70.1773 105.133 70.42 105.035C70.6627 104.938 70.8833 104.796 71.069 104.616C71.2548 104.436 71.4022 104.223 71.5028 103.988C71.6033 103.753 71.6551 103.501 71.6551 103.247C71.6551 102.993 71.6033 102.741 71.5028 102.506C71.4022 102.271 71.2548 102.057 71.069 101.878C70.8833 101.698 70.6627 101.555 70.42 101.458C70.1773 101.361 69.9172 101.311 69.6546 101.312ZM14.2735 101.312V85.5529H55.9521V101.312H14.2735Z" fill="#CCCCCC"/>
<path d="M68.0829 121.715C63.1185 121.715 58.4884 121.405 55.0458 120.84C50.799 120.145 48.7344 119.134 48.7344 117.75L48.7368 117.706L56.1908 62.7375L52.4589 52.3768C52.2798 51.8894 52.2262 51.367 52.3026 50.8549C52.3791 50.3428 52.5833 49.8566 52.8976 49.4382C53.2046 49.0133 53.6153 48.6686 54.0931 48.4346C54.571 48.2006 55.1011 48.0846 55.6364 48.0969L80.3487 48.3462C80.8725 48.3515 81.3876 48.4765 81.852 48.7112C82.3164 48.9459 82.717 49.2836 83.021 49.6967C83.3251 50.1098 83.5241 50.5866 83.6017 51.0883C83.6794 51.5901 83.6335 52.1024 83.4678 52.5837L79.9744 62.7336L87.4298 117.707V117.728C87.4306 119.221 85.0933 120.28 80.2844 120.967C75.5601 121.642 70.1777 121.715 68.0829 121.715Z" fill="white"/>
<path d="M68.0829 121.715C63.1185 121.715 58.4884 121.405 55.0458 120.84C50.799 120.145 48.7344 119.134 48.7344 117.75L48.7368 117.706L56.1908 62.7375L52.4589 52.3768C52.2798 51.8894 52.2262 51.367 52.3026 50.8549C52.3791 50.3428 52.5833 49.8566 52.8976 49.4382C53.2046 49.0133 53.6153 48.6686 54.0931 48.4346C54.571 48.2006 55.1011 48.0846 55.6364 48.0969L80.3487 48.3462C80.8725 48.3515 81.3876 48.4765 81.852 48.7112C82.3164 48.9459 82.717 49.2836 83.021 49.6967C83.3251 50.1098 83.5241 50.5866 83.6017 51.0883C83.6794 51.5901 83.6335 52.1024 83.4678 52.5837L79.9744 62.7336L87.4298 117.707V117.728C87.4306 119.221 85.0933 120.28 80.2844 120.967C75.5601 121.642 70.1777 121.715 68.0829 121.715ZM55.5681 48.7537C55.1522 48.7533 54.7423 48.8502 54.3734 49.0362C54.0044 49.2222 53.6873 49.4917 53.449 49.8218C53.1989 50.1547 53.0364 50.5417 52.9756 50.9491C52.9148 51.3566 52.9575 51.7723 53.1 52.1601L56.8849 62.6682L56.8745 62.7455L49.412 117.771C49.4133 118.31 50.1598 119.373 55.1592 120.192C58.5654 120.75 63.1551 121.058 68.0829 121.058C72.4143 121.058 76.9386 120.781 80.1852 120.317C84.3327 119.724 86.7219 118.789 86.7506 117.748L79.2809 62.6694L82.8237 52.3758C82.9555 51.9929 82.992 51.5851 82.9303 51.1859C82.8685 50.7867 82.7101 50.4072 82.4682 50.0785C82.2262 49.7497 81.9075 49.481 81.5379 49.2943C81.1684 49.1075 80.7585 49.0079 80.3417 49.0037L55.6256 48.7544C55.6064 48.7539 55.5872 48.7537 55.5681 48.7537Z" fill="#3F3D56"/>
<path opacity="0.5" d="M82.1699 111.024H53.9958L58.4621 81.7759L58.5837 80.9697L60.4444 68.7935C60.5579 68.0508 61.4408 68.6276 62.0651 68.1823C65.9411 65.418 69.8635 65.3379 73.82 68.0022C74.4315 68.4141 75.2763 67.9321 75.3904 68.6449L77.3451 80.8581L77.534 82.0394L82.1699 111.024Z" fill="#FAA831"/>
<path d="M78.6927 115.12H57.443C56.886 115.12 56.3354 115.004 55.8289 114.779C55.3224 114.554 54.8718 114.227 54.5079 113.818C54.1439 113.41 53.8751 112.93 53.7198 112.412C53.5645 111.894 53.5263 111.349 53.6078 110.816L59.8163 70.1567C59.8484 69.9488 59.9365 69.7528 60.0719 69.5885C60.2073 69.4242 60.3851 69.2975 60.5874 69.2212C60.7896 69.1448 61.009 69.1216 61.2235 69.1538C61.438 69.186 61.6399 69.2725 61.8087 69.4045C65.5925 72.3401 69.7164 72.2739 74.0656 69.209C74.2343 69.0896 74.432 69.0145 74.6395 68.9911C74.847 68.9677 75.0572 68.9968 75.2497 69.0754C75.4462 69.1535 75.6184 69.2796 75.7496 69.4414C75.8808 69.6031 75.9665 69.795 75.9984 69.9984L82.5241 110.79C82.6096 111.326 82.5746 111.873 82.4214 112.394C82.2682 112.915 82.0004 113.397 81.6365 113.809C81.2725 114.22 80.821 114.55 80.3128 114.776C79.8047 115.003 79.252 115.12 78.6927 115.12Z" fill="#FAA831"/>
<path d="M70.1423 110.353H58.0692V111.011H70.1423V110.353Z" fill="white"/>
<path d="M70.1423 106.408H58.0692V107.066H70.1423V106.408Z" fill="white"/>
<path d="M70.1423 102.463H58.0692V103.121H70.1423V102.463Z" fill="white"/>
<path d="M70.1423 98.5184H58.0692V99.1759H70.1423V98.5184Z" fill="white"/>
<path d="M70.1423 94.5735H58.0692V95.231H70.1423V94.5735Z" fill="white"/>
<path d="M78.1033 84.2247C77.1669 85.1252 76.0405 85.8189 74.8013 86.2581C73.562 86.6973 72.2394 86.8716 70.924 86.7692C69.4237 86.6377 68.0557 86.0953 66.7386 85.4115C65.3775 84.7047 64.0604 83.8598 62.5533 83.4653C61.2328 83.1201 59.668 83.0741 58.5342 83.9289C58.4416 83.9984 58.3284 84.0375 58.2112 84.0404C58.0939 84.0434 57.9788 84.0101 57.8825 83.9453L58.0115 83.0906C59.2742 82.2358 60.8085 82.1043 62.3123 82.3969C65.3401 82.9887 67.6382 85.4148 70.7407 85.7632C72.079 85.9092 73.4338 85.7308 74.6834 85.2442C75.933 84.7576 77.0381 83.9781 77.8996 82.9755L77.903 82.9722L78.1033 84.2247Z" fill="white"/>
<path d="M148 121.733C148 121.768 147.993 121.803 147.979 121.835C147.965 121.868 147.945 121.897 147.919 121.922C147.894 121.947 147.863 121.966 147.83 121.98C147.796 121.993 147.76 122 147.724 122H0.294348C0.221106 122 0.150863 121.972 0.0990732 121.922C0.0472833 121.871 0.0181885 121.803 0.0181885 121.733C0.0181885 121.662 0.0472833 121.594 0.0990732 121.543C0.150863 121.493 0.221106 121.465 0.294348 121.465H147.724C147.76 121.465 147.796 121.472 147.83 121.485C147.863 121.499 147.894 121.518 147.919 121.543C147.945 121.568 147.965 121.598 147.979 121.63C147.993 121.663 148 121.697 148 121.733Z" fill="#CCCCCC"/>
<path d="M117.368 20.5209L125.303 19.8557L132.742 23.1489L136.919 79.1113L120.527 71.7693L113.493 73.6538L117.368 20.5209Z" fill="#F2F2F2"/>
<path d="M78.2064 20.4519C78.9754 20.4519 79.5988 19.8482 79.5988 19.1034C79.5988 18.3587 78.9754 17.7549 78.2064 17.7549C77.4374 17.7549 76.814 18.3587 76.814 19.1034C76.814 19.8482 77.4374 20.4519 78.2064 20.4519Z" fill="#FAA831"/>
<path d="M75.8857 36.8585C76.6547 36.8585 77.2781 36.2548 77.2781 35.5101C77.2781 34.7653 76.6547 34.1616 75.8857 34.1616C75.1167 34.1616 74.4933 34.7653 74.4933 35.5101C74.4933 36.2548 75.1167 36.8585 75.8857 36.8585Z" fill="#FAA831"/>
<path d="M68.4596 46.5228C69.2286 46.5228 69.852 45.9191 69.852 45.1743C69.852 44.4295 69.2286 43.8258 68.4596 43.8258C67.6906 43.8258 67.0672 44.4295 67.0672 45.1743C67.0672 45.9191 67.6906 46.5228 68.4596 46.5228Z" fill="#FAA831"/>
<path d="M103.22 56.9708V42.4948C103.22 42.2018 103.341 41.9209 103.554 41.7138C103.768 41.5066 104.058 41.39 104.361 41.3897H115.649C115.952 41.39 116.242 41.5066 116.456 41.7138C116.67 41.9209 116.79 42.2018 116.791 42.4948V56.9708C116.79 57.2638 116.67 57.5447 116.456 57.7518C116.242 57.959 115.952 58.0756 115.649 58.0759H104.361C104.058 58.0756 103.768 57.959 103.554 57.7518C103.341 57.5447 103.22 57.2638 103.22 56.9708Z" fill="#E6E6E6"/>
<path d="M104.086 52.5984V43.292C104.086 43.0176 104.199 42.7545 104.399 42.5605C104.599 42.3665 104.871 42.2573 105.154 42.257H114.856C115.139 42.2573 115.411 42.3665 115.611 42.5605C115.812 42.7545 115.924 43.0176 115.925 43.292V56.1736C115.924 56.448 115.812 56.7111 115.611 56.9051C115.411 57.0991 115.139 57.2083 114.856 57.2086H108.846C107.584 57.2072 106.374 56.7211 105.482 55.8568C104.589 54.9925 104.087 53.8207 104.086 52.5984Z" fill="white"/>
<path d="M105.656 45.8886C105.657 45.6205 105.767 45.3634 105.963 45.1738C106.158 44.9842 106.424 44.8776 106.701 44.8773H113.431C113.708 44.8773 113.973 44.9838 114.169 45.1735C114.365 45.3632 114.475 45.6204 114.475 45.8886C114.475 46.1569 114.365 46.4141 114.169 46.6038C113.973 46.7934 113.708 46.9 113.431 46.9H106.701C106.424 46.8997 106.158 46.7931 105.963 46.6035C105.767 46.4138 105.657 46.1568 105.656 45.8886Z" fill="#E6E6E6"/>
<path d="M105.656 49.0351C105.657 48.767 105.767 48.5099 105.963 48.3203C106.158 48.1307 106.424 48.024 106.701 48.0237H113.431C113.708 48.0237 113.973 48.1303 114.169 48.32C114.365 48.5096 114.475 48.7669 114.475 49.0351C114.475 49.3033 114.365 49.5606 114.169 49.7503C113.973 49.9399 113.708 50.0465 113.431 50.0465H106.701C106.424 50.0462 106.158 49.9395 105.963 49.7499C105.767 49.5603 105.657 49.3033 105.656 49.0351Z" fill="#E6E6E6"/>
<path d="M105.656 52.1816C105.657 51.9135 105.767 51.6564 105.963 51.4668C106.158 51.2772 106.424 51.1705 106.701 51.1702H113.431C113.708 51.1702 113.973 51.2768 114.169 51.4665C114.365 51.6561 114.475 51.9134 114.475 52.1816C114.475 52.4498 114.365 52.7071 114.169 52.8967C113.973 53.0864 113.708 53.193 113.431 53.193H106.701C106.424 53.1927 106.158 53.086 105.963 52.8964C105.767 52.7068 105.657 52.4497 105.656 52.1816Z" fill="#E6E6E6"/>
<path d="M112.416 59.4682C112.734 59.341 113.019 59.1479 113.251 58.9026C113.483 58.6572 113.657 58.3654 113.76 58.0479C113.864 57.7304 113.894 57.3948 113.849 57.0647C113.804 56.7347 113.684 56.4182 113.499 56.1377L121.684 48.9367L124.556 38.1798L119.46 37.7692L117.902 46.2103L110.097 55.5141C109.631 55.8465 109.307 56.3328 109.186 56.881C109.066 57.4292 109.157 58.0012 109.443 58.4886C109.729 58.976 110.189 59.3449 110.737 59.5255C111.285 59.706 111.882 59.6856 112.416 59.4682Z" fill="#FFB6B6"/>
<path d="M125.341 28.4653C125.341 28.4653 126.583 28.4831 126.024 30.9737C125.576 32.9676 123.876 44.1882 122.52 46.6984C122.831 46.9579 123.043 47.31 123.124 47.6992C123.205 48.0885 123.15 48.4928 122.968 48.8484L117.299 46.7187C116.805 45.4733 117.634 45.0862 118.162 44.9745L118.059 41.0681L118.871 31.1108L124.443 28.437L125.341 28.4653Z" fill="#F2F2F2"/>
<path d="M127.011 10.0319C126.746 11.8996 125.727 13.5892 124.177 14.7295C122.627 15.8698 120.673 16.3675 118.744 16.1133C116.815 15.859 115.07 14.8737 113.891 13.3737C112.712 11.8737 112.196 9.98171 112.457 8.11355L112.471 8.01259C112.775 6.16951 113.815 4.51614 115.367 3.40912C116.919 2.3021 118.857 1.83017 120.765 2.09512C122.673 2.36008 124.397 3.34068 125.565 4.8254C126.733 6.31013 127.251 8.17997 127.008 10.0316L127.011 10.0319Z" fill="#FFB8B8"/>
<path d="M125.141 13.6954C125.518 12.9534 125.906 12.1568 125.8 11.3363C125.694 10.5157 124.863 9.73132 124.047 9.97519C123.559 10.121 123.19 10.5876 122.68 10.6115C121.979 10.6444 121.576 9.86654 121.358 9.21984L120.468 6.58599C119.614 7.23077 118.623 7.68497 117.567 7.91616C116.51 8.14736 115.414 8.14985 114.357 7.92347C113.531 7.74058 112.696 7.38399 112.212 6.71082C111.727 6.03765 111.73 4.99345 112.395 4.48442C112.721 4.23482 113.154 4.13999 113.466 3.87365C113.659 3.70843 113.792 3.48738 113.845 3.24319C113.899 2.99901 113.869 2.74467 113.762 2.51782C113.655 2.29097 113.474 2.10365 113.249 1.9836C113.023 1.86354 112.763 1.81712 112.507 1.85121L114.747 1.58008L114.08 0.411084C114.561 0.778218 115.23 0.827592 115.833 0.722504C116.435 0.617416 117.003 0.377107 117.593 0.21685C120.423 -0.552496 123.712 0.785179 125.127 3.28079C125.678 3.10254 126.272 3.09069 126.83 3.24682C127.389 3.40295 127.885 3.71969 128.253 4.15507C128.853 4.89213 129.016 5.87572 129.039 6.8138C129.083 8.66344 128.666 10.4961 127.825 12.1572C127.584 12.6848 127.237 13.161 126.805 13.5584C126.587 13.7554 126.328 13.9039 126.045 13.9936C125.762 14.0833 125.462 14.1118 125.166 14.0773" fill="#2F2E41"/>
</g>
<defs>
<clipPath id="clip0_40_832">
<rect width="148" height="122" fill="white"/>
</clipPath>
</defs>
</svg>
