<svg width="315" height="340" viewBox="0 0 315 340" fill="none" xmlns="http://www.w3.org/2000/svg">
<g filter="url(#filter0_d_40_565)">
<g clip-path="url(#clip0_40_565)">
<rect x="17" y="29" width="258" height="276" rx="16" fill="white"/>
<path d="M73.3999 61.1709C75.4234 61.1709 76.5991 59.9951 76.5991 57.9922V51.1357H74.8423V57.9785C74.8423 59.0518 74.3364 59.626 73.3794 59.626C72.5112 59.626 72.0464 59.0586 71.9986 58.2998L71.9917 58.2451H70.2691L70.2759 58.3203C70.3443 60.0156 71.479 61.1709 73.3999 61.1709ZM80.4989 61.123C81.4559 61.123 82.2626 60.6445 82.6796 59.8857H82.7206V61H84.4227V56.0166C84.4227 54.5605 83.2538 53.6035 81.4423 53.6035C79.6034 53.6035 78.4891 54.5674 78.3866 55.8525L78.3798 55.9346H79.9589L79.9725 55.873C80.0819 55.3398 80.5741 54.9639 81.3807 54.9639C82.2421 54.9639 82.7206 55.4082 82.7206 56.1396V56.6387L80.827 56.7549C79.0702 56.8643 78.0721 57.6367 78.0721 58.9219V58.9355C78.0721 60.2275 79.0497 61.123 80.4989 61.123ZM79.7675 58.8672V58.8604C79.7675 58.2861 80.2255 57.9238 81.0663 57.8691L82.7206 57.7666V58.3135C82.7206 59.1748 81.9823 59.8242 81.0048 59.8242C80.2596 59.8242 79.7675 59.4619 79.7675 58.8672ZM85.9368 61H87.6389V56.7959C87.6389 55.75 88.261 55.0391 89.2385 55.0391C90.2092 55.0391 90.6877 55.6201 90.6877 56.6523V61H92.3899V56.3105C92.3899 54.6289 91.4807 53.6035 89.8879 53.6035C88.7873 53.6035 88.0491 54.1094 87.6731 54.8887H87.6389V53.7539H85.9368V61ZM96.3648 61.1436C97.4586 61.1436 98.2037 60.6377 98.5797 59.8652H98.6139V61H100.316V53.7539H98.6139V57.9512C98.6139 59.0039 97.9918 59.708 97.0143 59.708C96.0436 59.708 95.565 59.127 95.565 58.1016V53.7539H93.8629V58.4365C93.8629 60.1182 94.7721 61.1436 96.3648 61.1436ZM103.997 61.123C104.954 61.123 105.761 60.6445 106.178 59.8857H106.219V61H107.921V56.0166C107.921 54.5605 106.752 53.6035 104.94 53.6035C103.102 53.6035 101.987 54.5674 101.885 55.8525L101.878 55.9346H103.457L103.471 55.873C103.58 55.3398 104.072 54.9639 104.879 54.9639C105.74 54.9639 106.219 55.4082 106.219 56.1396V56.6387L104.325 56.7549C102.568 56.8643 101.57 57.6367 101.57 58.9219V58.9355C101.57 60.2275 102.548 61.123 103.997 61.123ZM103.266 58.8672V58.8604C103.266 58.2861 103.724 57.9238 104.564 57.8691L106.219 57.7666V58.3135C106.219 59.1748 105.48 59.8242 104.503 59.8242C103.758 59.8242 103.266 59.4619 103.266 58.8672ZM109.435 61H111.137V56.7959C111.137 55.7227 111.718 55.1143 112.682 55.1143C112.969 55.1143 113.229 55.1553 113.372 55.21V53.6719C113.243 53.6377 113.044 53.6035 112.832 53.6035C111.998 53.6035 111.397 54.1299 111.171 55.0049H111.137V53.7539H109.435V61ZM115.29 52.7148C115.823 52.7148 116.233 52.291 116.233 51.7852C116.233 51.2656 115.823 50.8486 115.29 50.8486C114.757 50.8486 114.34 51.2656 114.34 51.7852C114.34 52.291 114.757 52.7148 115.29 52.7148ZM114.435 61H116.137V53.7539H114.435V61ZM120.704 61H127.635V59.5576H123.035V59.4824L125.208 57.418C126.945 55.75 127.485 54.9639 127.485 53.8018V53.7881C127.485 52.1611 126.104 50.9648 124.128 50.9648C122.125 50.9648 120.608 52.2568 120.608 54.0615V54.1094H122.262V54.0615C122.283 53.1113 123.048 52.3799 124.142 52.3799C125.092 52.3799 125.755 53.0088 125.762 53.8906V53.9043C125.762 54.6357 125.482 55.1348 124.19 56.3994L120.704 59.7969V61ZM132.806 61.1709C135.219 61.1709 136.682 59.209 136.682 56.0713V56.0576C136.682 52.9199 135.219 50.9648 132.806 50.9648C130.386 50.9648 128.93 52.9199 128.93 56.0576V56.0713C128.93 59.209 130.386 61.1709 132.806 61.1709ZM132.806 59.7285C131.473 59.7285 130.708 58.3477 130.708 56.0713V56.0576C130.708 53.7812 131.473 52.4141 132.806 52.4141C134.133 52.4141 134.905 53.7812 134.905 56.0576V56.0713C134.905 58.3477 134.133 59.7285 132.806 59.7285ZM138.046 61H144.978V59.5576H140.377V59.4824L142.551 57.418C144.287 55.75 144.827 54.9639 144.827 53.8018V53.7881C144.827 52.1611 143.446 50.9648 141.471 50.9648C139.468 50.9648 137.95 52.2568 137.95 54.0615V54.1094H139.605V54.0615C139.625 53.1113 140.391 52.3799 141.484 52.3799C142.435 52.3799 143.098 53.0088 143.105 53.8906V53.9043C143.105 54.6357 142.824 55.1348 141.532 56.3994L138.046 59.7969V61ZM146.444 61H153.375V59.5576H148.775V59.4824L150.949 57.418C152.685 55.75 153.225 54.9639 153.225 53.8018V53.7881C153.225 52.1611 151.844 50.9648 149.869 50.9648C147.866 50.9648 146.348 52.2568 146.348 54.0615V54.1094H148.002V54.0615C148.023 53.1113 148.789 52.3799 149.882 52.3799C150.833 52.3799 151.496 53.0088 151.502 53.8906V53.9043C151.502 54.6357 151.222 55.1348 149.93 56.3994L146.444 59.7969V61Z" fill="#0F2552"/>
<path d="M206.183 52.675L202.358 56.5L206.183 60.325L205 61.5L200 56.5L205 51.5L206.183 52.675Z" fill="#848A95"/>
<path d="M241.817 60.325L245.642 56.5L241.817 52.675L243 51.5L248 56.5L243 61.5L241.817 60.325Z" fill="#848A95"/>
<line x1="41" y1="72.6" x2="250" y2="72.6" stroke="#E4E5E7" stroke-width="0.8"/>
<path d="M51.6914 89.1172C53.3613 89.1172 54.377 88.3018 54.377 87.0176V87.0127C54.377 85.9238 53.752 85.333 52.2969 85.0254L51.5254 84.8643C50.6465 84.6738 50.2461 84.3516 50.2461 83.8242V83.8193C50.2461 83.2041 50.8027 82.7891 51.6768 82.7842C52.5117 82.7842 53.0781 83.1797 53.1758 83.834L53.1807 83.9023H54.2451L54.2402 83.8193C54.167 82.6377 53.1611 81.8369 51.6914 81.8369C50.2021 81.8369 49.1426 82.6621 49.1377 83.8633V83.8682C49.1377 84.9131 49.8066 85.5479 51.1885 85.8408L51.9551 86.002C52.8877 86.207 53.2734 86.5146 53.2734 87.0811V87.0859C53.2734 87.7451 52.6777 88.1699 51.7354 88.1699C50.793 88.1699 50.1436 87.7646 50.0459 87.1152L50.0361 87.0518H48.9717L48.9766 87.125C49.0645 88.3652 50.1094 89.1172 51.6914 89.1172ZM55.3633 89H59.8359V88.0576H56.457V85.8701H59.6553V84.9521H56.457V82.8965H59.8359V81.9541H55.3633V89ZM60.959 89H62.043V83.7803H62.0723L65.7002 89H66.7061V81.9541H65.6221V87.1641H65.5928L61.9697 81.9541H60.959V89Z" fill="#7E818C"/>
<path d="M82.7272 89.1172C84.3971 89.1172 85.4127 88.3018 85.4127 87.0176V87.0127C85.4127 85.9238 84.7877 85.333 83.3326 85.0254L82.5612 84.8643C81.6823 84.6738 81.2819 84.3516 81.2819 83.8242V83.8193C81.2819 83.2041 81.8385 82.7891 82.7125 82.7842C83.5475 82.7842 84.1139 83.1797 84.2115 83.834L84.2164 83.9023H85.2809L85.276 83.8193C85.2028 82.6377 84.1969 81.8369 82.7272 81.8369C81.2379 81.8369 80.1783 82.6621 80.1735 83.8633V83.8682C80.1735 84.9131 80.8424 85.5479 82.2242 85.8408L82.9908 86.002C83.9235 86.207 84.3092 86.5146 84.3092 87.0811V87.0859C84.3092 87.7451 83.7135 88.1699 82.7711 88.1699C81.8287 88.1699 81.1793 87.7646 81.0817 87.1152L81.0719 87.0518H80.0074L80.0123 87.125C80.1002 88.3652 81.1451 89.1172 82.7272 89.1172ZM86.399 89H90.8717V88.0576H87.4928V85.8701H90.691V84.9521H87.4928V82.8965H90.8717V81.9541H86.399V89ZM91.9948 89H96.3698V88.0576H93.0885V81.9541H91.9948V89Z" fill="#7E818C"/>
<path d="M109.544 89H110.638V86.2949H112.142L113.578 89H114.837L113.26 86.1289C114.105 85.8408 114.627 85.0791 114.627 84.1221V84.1123C114.627 82.7891 113.719 81.9541 112.279 81.9541H109.544V89ZM110.638 85.3965V82.8721H112.142C112.982 82.8721 113.499 83.3408 113.499 84.1221V84.1318C113.499 84.9326 113.016 85.3965 112.171 85.3965H110.638ZM115.164 89H116.312L116.961 87.0957H119.676L120.321 89H121.468L118.91 81.9541H117.728L115.164 89ZM118.309 83.1211H118.328L119.378 86.2168H117.254L118.309 83.1211ZM122.249 89H125.077C126.576 89 127.479 88.248 127.479 87.0127V87.0029C127.479 86.0752 126.829 85.3867 125.828 85.2842V85.2646C126.571 85.1572 127.132 84.4688 127.132 83.7266V83.7168C127.132 82.6523 126.312 81.9541 125.062 81.9541H122.249V89ZM124.798 82.8477C125.589 82.8477 126.043 83.2041 126.043 83.8486V83.8584C126.043 84.5664 125.521 84.957 124.554 84.957H123.343V82.8477H124.798ZM124.779 85.8018C125.824 85.8018 126.361 86.1924 126.361 86.9492V86.959C126.361 87.7109 125.833 88.1064 124.852 88.1064H123.343V85.8018H124.779Z" fill="#7E818C"/>
<path d="M138.559 89H139.652V86.6465L140.37 85.8164L142.699 89H144.052L141.151 85.0693L143.822 81.9541H142.523L139.682 85.3281H139.652V81.9541H138.559V89ZM144.237 89H145.385L146.034 87.0957H148.749L149.394 89H150.541L147.982 81.9541H146.801L144.237 89ZM147.382 83.1211H147.401L148.451 86.2168H146.327L147.382 83.1211ZM151.322 89H152.318V83.7998H152.353L154.477 89H155.287L157.411 83.7998H157.445V89H158.441V81.9541H157.182L154.896 87.5791H154.867L152.587 81.9541H151.322V89Z" fill="#7E818C"/>
<path d="M170.683 89.1172C172.065 89.1172 172.88 88.3018 172.88 86.915V81.9541H171.787V86.9053C171.787 87.7109 171.396 88.1406 170.673 88.1406C170.019 88.1406 169.682 87.7207 169.638 87.1836L169.633 87.1396H168.554L168.559 87.1982C168.618 88.3213 169.38 89.1172 170.683 89.1172ZM177.05 89.1172C178.823 89.1172 179.897 88.0674 179.897 86.5244V81.9541H178.808V86.4365C178.808 87.4619 178.173 88.1504 177.05 88.1504C175.927 88.1504 175.288 87.4619 175.288 86.4365V81.9541H174.194V86.5244C174.194 88.0674 175.283 89.1172 177.05 89.1172ZM181.196 89H182.192V83.7998H182.226L184.35 89H185.161L187.285 83.7998H187.319V89H188.315V81.9541H187.055L184.77 87.5791H184.741L182.461 81.9541H181.196V89Z" fill="#7E818C"/>
<path d="M202.51 89.1172C204.18 89.1172 205.196 88.3018 205.196 87.0176V87.0127C205.196 85.9238 204.571 85.333 203.116 85.0254L202.344 84.8643C201.465 84.6738 201.065 84.3516 201.065 83.8242V83.8193C201.065 83.2041 201.621 82.7891 202.495 82.7842C203.33 82.7842 203.897 83.1797 203.995 83.834L203.999 83.9023H205.064L205.059 83.8193C204.986 82.6377 203.98 81.8369 202.51 81.8369C201.021 81.8369 199.961 82.6621 199.956 83.8633V83.8682C199.956 84.9131 200.625 85.5479 202.007 85.8408L202.774 86.002C203.706 86.207 204.092 86.5146 204.092 87.0811V87.0859C204.092 87.7451 203.496 88.1699 202.554 88.1699C201.612 88.1699 200.962 87.7646 200.865 87.1152L200.855 87.0518H199.79L199.795 87.125C199.883 88.3652 200.928 89.1172 202.51 89.1172ZM205.601 89H206.748L207.398 87.0957H210.113L210.757 89H211.905L209.346 81.9541H208.164L205.601 89ZM208.745 83.1211H208.765L209.815 86.2168H207.691L208.745 83.1211ZM212.686 89H215.513C217.012 89 217.915 88.248 217.915 87.0127V87.0029C217.915 86.0752 217.266 85.3867 216.265 85.2842V85.2646C217.007 85.1572 217.569 84.4688 217.569 83.7266V83.7168C217.569 82.6523 216.748 81.9541 215.498 81.9541H212.686V89ZM215.235 82.8477C216.026 82.8477 216.48 83.2041 216.48 83.8486V83.8584C216.48 84.5664 215.957 84.957 214.991 84.957H213.78V82.8477H215.235ZM215.215 85.8018C216.26 85.8018 216.797 86.1924 216.797 86.9492V86.959C216.797 87.7109 216.27 88.1064 215.288 88.1064H213.78V85.8018H215.215Z" fill="#7E818C"/>
<path d="M230.719 89H231.715V83.7998H231.749L233.873 89H234.684L236.808 83.7998H236.842V89H237.838V81.9541H236.578L234.293 87.5791H234.264L231.983 81.9541H230.719V89ZM239.137 89H240.23V81.9541H239.137V89ZM241.529 89H242.613V83.7803H242.643L246.271 89H247.276V81.9541H246.192V87.1641H246.163L242.54 81.9541H241.529V89Z" fill="#7E818C"/>
<g clip-path="url(#clip1_40_565)">
<rect x="36" y="107" width="24" height="24" rx="12" fill="#1F95AF"/>
<path d="M48.0615 124H49.5586V114.136H48.0479L45.4502 115.981V117.431L48.0273 115.653H48.0615V124Z" fill="#FDFDFD"/>
</g>
<path d="M77.7119 124H84.459V122.708H79.7627V122.646L82.0049 120.445C83.7754 118.695 84.3018 117.896 84.3018 116.768V116.754C84.3018 115.161 82.9482 113.972 81.0547 113.972C79.127 113.972 77.6299 115.25 77.6299 117.014V117.055H79.0791V117.014C79.0928 116.016 79.9199 115.236 81.0752 115.236C82.0732 115.236 82.7842 115.906 82.791 116.843V116.856C82.791 117.622 82.4971 118.142 81.1846 119.454L77.7119 122.947V124Z" fill="#0F2552"/>
<path d="M113.973 124.164C116.064 124.164 117.548 122.961 117.548 121.272V121.259C117.548 119.878 116.577 119.003 115.128 118.873V118.839C116.331 118.586 117.206 117.766 117.206 116.542V116.528C117.206 115.011 115.921 113.972 113.959 113.972C112.031 113.972 110.719 115.059 110.568 116.706L110.562 116.774H111.997L112.004 116.713C112.1 115.797 112.865 115.223 113.959 115.223C115.073 115.223 115.716 115.776 115.716 116.727V116.74C115.716 117.656 114.95 118.319 113.822 118.319H112.667V119.509H113.863C115.183 119.509 115.989 120.131 115.989 121.245V121.259C115.989 122.216 115.176 122.886 113.973 122.886C112.749 122.886 111.922 122.271 111.826 121.396L111.819 121.32H110.35L110.356 121.409C110.493 123.016 111.867 124.164 113.973 124.164Z" fill="#0F2552"/>
<path d="M148.114 124H149.584V122.038H150.944V120.753H149.584V114.136H147.369L143.179 120.705V122.038H148.114V124ZM144.601 120.773V120.732L148.087 115.346H148.128V120.773H144.601Z" fill="#0F2552"/>
<path d="M180.096 124.164C182.222 124.164 183.719 122.776 183.719 120.773V120.76C183.719 118.873 182.358 117.513 180.472 117.513C179.501 117.513 178.681 117.889 178.236 118.552H178.202L178.503 115.428H183.145V114.136H177.266L176.78 119.823H178.12C178.25 119.604 178.407 119.413 178.592 119.256C178.988 118.9 179.515 118.723 180.123 118.723C181.347 118.723 182.215 119.577 182.222 120.787V120.801C182.222 122.024 181.354 122.886 180.109 122.886C179.009 122.886 178.202 122.202 178.072 121.313L178.065 121.259H176.603L176.609 121.341C176.746 122.968 178.12 124.164 180.096 124.164Z" fill="#0F2552"/>
<path d="M213.068 124.164C215.146 124.164 216.671 122.749 216.671 120.78V120.767C216.671 118.9 215.311 117.526 213.424 117.526C212.084 117.526 211.086 118.224 210.696 119.112H210.662C210.662 119.023 210.662 118.935 210.669 118.846C210.73 116.891 211.421 115.257 213.116 115.257C214.06 115.257 214.702 115.722 214.982 116.46L215.003 116.528H216.541L216.521 116.446C216.206 114.977 214.887 113.972 213.13 113.972C210.662 113.972 209.192 115.913 209.192 119.201V119.215C209.192 122.763 211.052 124.164 213.068 124.164ZM210.963 120.787V120.78C210.963 119.611 211.872 118.771 213.068 118.771C214.271 118.771 215.146 119.618 215.146 120.808V120.821C215.146 121.97 214.217 122.879 213.048 122.879C211.879 122.879 210.963 121.956 210.963 120.787Z" fill="#0F2552"/>
<path d="M243.416 124H245.022L249.309 115.462V114.136H242.596V115.428H247.798V115.462L243.416 124Z" fill="#0F2552"/>
<path d="M47 164.164C49.1875 164.164 50.7256 162.995 50.7256 161.327V161.313C50.7256 160.069 49.8369 159.085 48.5518 158.805V158.771C49.6523 158.456 50.3701 157.636 50.3701 156.59V156.576C50.3701 155.072 48.9619 153.972 47 153.972C45.0381 153.972 43.6367 155.072 43.6367 156.576V156.59C43.6367 157.636 44.3545 158.456 45.4551 158.771V158.805C44.1699 159.085 43.2744 160.069 43.2744 161.313V161.327C43.2744 162.995 44.8193 164.164 47 164.164ZM47 158.258C45.9062 158.258 45.1543 157.622 45.1543 156.727V156.713C45.1543 155.811 45.9062 155.182 47 155.182C48.0938 155.182 48.8525 155.811 48.8525 156.713V156.727C48.8525 157.622 48.1006 158.258 47 158.258ZM47 162.94C45.7422 162.94 44.8467 162.223 44.8467 161.225V161.211C44.8467 160.206 45.7354 159.481 47 159.481C48.2646 159.481 49.1533 160.206 49.1533 161.211V161.225C49.1533 162.223 48.2578 162.94 47 162.94Z" fill="#0F2552"/>
<path d="M79.9316 153.972C77.8467 153.972 76.3223 155.387 76.3223 157.355V157.369C76.3223 159.235 77.6895 160.609 79.5762 160.609C80.916 160.609 81.9141 159.912 82.3037 159.023H82.3379C82.3379 159.112 82.3379 159.201 82.3311 159.29C82.2695 161.245 81.5791 162.879 79.8838 162.879C78.9404 162.879 78.2979 162.414 78.0176 161.676L77.9902 161.607H76.459L76.4795 161.689C76.7939 163.159 78.1133 164.164 79.8701 164.164C82.3379 164.164 83.8076 162.223 83.8076 158.935V158.921C83.8076 155.373 81.9482 153.972 79.9316 153.972ZM79.9248 159.365C78.7285 159.365 77.8467 158.518 77.8467 157.328V157.314C77.8467 156.166 78.7832 155.257 79.9453 155.257C81.1211 155.257 82.0371 156.18 82.0371 157.349V157.355C82.0371 158.524 81.1279 159.365 79.9248 159.365Z" fill="#0F2552"/>
<path d="M108.693 164H110.19V154.136H108.68L106.082 155.981V157.431L108.659 155.653H108.693V164ZM116.199 164.164C118.551 164.164 119.966 162.202 119.966 159.071V159.058C119.966 155.927 118.551 153.972 116.199 153.972C113.841 153.972 112.433 155.927 112.433 159.058V159.071C112.433 162.202 113.841 164.164 116.199 164.164ZM116.199 162.886C114.791 162.886 113.978 161.437 113.978 159.071V159.058C113.978 156.692 114.791 155.257 116.199 155.257C117.601 155.257 118.421 156.692 118.421 159.058V159.071C118.421 161.437 117.601 162.886 116.199 162.886Z" fill="#0F2552"/>
<path d="M142.862 164H144.359V154.136H142.849L140.251 155.981V157.431L142.828 155.653H142.862V164ZM149.261 164H150.758V154.136H149.247L146.649 155.981V157.431L149.227 155.653H149.261V164Z" fill="#0F2552"/>
<path d="M175.008 164H176.505V154.136H174.994L172.396 155.981V157.431L174.974 155.653H175.008V164ZM178.911 164H185.658V162.708H180.962V162.646L183.204 160.445C184.975 158.695 185.501 157.896 185.501 156.768V156.754C185.501 155.161 184.147 153.972 182.254 153.972C180.326 153.972 178.829 155.25 178.829 157.014V157.055H180.278V157.014C180.292 156.016 181.119 155.236 182.274 155.236C183.272 155.236 183.983 155.906 183.99 156.843V156.856C183.99 157.622 183.696 158.142 182.384 159.454L178.911 162.947V164Z" fill="#0F2552"/>
<path d="M207.823 164H209.32V154.136H207.81L205.212 155.981V157.431L207.789 155.653H207.823V164ZM215.172 164.164C217.264 164.164 218.747 162.961 218.747 161.272V161.259C218.747 159.878 217.776 159.003 216.327 158.873V158.839C217.53 158.586 218.405 157.766 218.405 156.542V156.528C218.405 155.011 217.12 153.972 215.158 153.972C213.23 153.972 211.918 155.059 211.768 156.706L211.761 156.774H213.196L213.203 156.713C213.299 155.797 214.064 155.223 215.158 155.223C216.272 155.223 216.915 155.776 216.915 156.727V156.74C216.915 157.656 216.149 158.319 215.021 158.319H213.866V159.509H215.062C216.382 159.509 217.188 160.131 217.188 161.245V161.259C217.188 162.216 216.375 162.886 215.172 162.886C213.948 162.886 213.121 162.271 213.025 161.396L213.019 161.32H211.549L211.556 161.409C211.692 163.016 213.066 164.164 215.172 164.164Z" fill="#0F2552"/>
<path d="M240.721 164H242.218V154.136H240.707L238.109 155.981V157.431L240.687 155.653H240.721V164ZM249.313 164H250.783V162.038H252.144V160.753H250.783V154.136H248.568L244.378 160.705V162.038H249.313V164ZM245.8 160.773V160.732L249.286 155.346H249.327V160.773H245.8Z" fill="#0F2552"/>
<path d="M42.8643 204H44.3613V194.136H42.8506L40.2529 195.981V197.431L42.8301 195.653H42.8643V204ZM50.2949 204.164C52.4209 204.164 53.918 202.776 53.918 200.773V200.76C53.918 198.873 52.5576 197.513 50.6709 197.513C49.7002 197.513 48.8799 197.889 48.4355 198.552H48.4014L48.7021 195.428H53.3438V194.136H47.4648L46.9795 199.823H48.3193C48.4492 199.604 48.6064 199.413 48.791 199.256C49.1875 198.9 49.7139 198.723 50.3223 198.723C51.5459 198.723 52.4141 199.577 52.4209 200.787V200.801C52.4209 202.024 51.5527 202.886 50.3086 202.886C49.208 202.886 48.4014 202.202 48.2715 201.313L48.2646 201.259H46.8018L46.8086 201.341C46.9453 202.968 48.3193 204.164 50.2949 204.164Z" fill="#0F2552"/>
<path d="M75.6523 204H77.1494V194.136H75.6387L73.041 195.981V197.431L75.6182 195.653H75.6523V204ZM83.2676 204.164C85.3457 204.164 86.8701 202.749 86.8701 200.78V200.767C86.8701 198.9 85.5098 197.526 83.623 197.526C82.2832 197.526 81.2852 198.224 80.8955 199.112H80.8613C80.8613 199.023 80.8613 198.935 80.8682 198.846C80.9297 196.891 81.6201 195.257 83.3154 195.257C84.2588 195.257 84.9014 195.722 85.1816 196.46L85.2021 196.528H86.7402L86.7197 196.446C86.4053 194.977 85.0859 193.972 83.3291 193.972C80.8613 193.972 79.3916 195.913 79.3916 199.201V199.215C79.3916 202.763 81.251 204.164 83.2676 204.164ZM81.1621 200.787V200.78C81.1621 199.611 82.0713 198.771 83.2676 198.771C84.4707 198.771 85.3457 199.618 85.3457 200.808V200.821C85.3457 201.97 84.416 202.879 83.2471 202.879C82.0781 202.879 81.1621 201.956 81.1621 200.787Z" fill="#0F2552"/>
<path d="M109.165 204H110.662V194.136H109.151L106.554 195.981V197.431L109.131 195.653H109.165V204ZM113.615 204H115.222L119.508 195.462V194.136H112.795V195.428H117.997V195.462L113.615 204Z" fill="#0F2552"/>
<path d="M141.741 204H143.238V194.136H141.728L139.13 195.981V197.431L141.707 195.653H141.741V204ZM149.199 204.164C151.387 204.164 152.925 202.995 152.925 201.327V201.313C152.925 200.069 152.036 199.085 150.751 198.805V198.771C151.852 198.456 152.569 197.636 152.569 196.59V196.576C152.569 195.072 151.161 193.972 149.199 193.972C147.237 193.972 145.836 195.072 145.836 196.576V196.59C145.836 197.636 146.554 198.456 147.654 198.771V198.805C146.369 199.085 145.474 200.069 145.474 201.313V201.327C145.474 202.995 147.019 204.164 149.199 204.164ZM149.199 198.258C148.105 198.258 147.354 197.622 147.354 196.727V196.713C147.354 195.811 148.105 195.182 149.199 195.182C150.293 195.182 151.052 195.811 151.052 196.713V196.727C151.052 197.622 150.3 198.258 149.199 198.258ZM149.199 202.94C147.941 202.94 147.046 202.223 147.046 201.225V201.211C147.046 200.206 147.935 199.481 149.199 199.481C150.464 199.481 151.353 200.206 151.353 201.211V201.225C151.353 202.223 150.457 202.94 149.199 202.94Z" fill="#0F2552"/>
<path d="M174.659 204H176.156V194.136H174.646L172.048 195.981V197.431L174.625 195.653H174.659V204ZM182.124 193.972C180.039 193.972 178.515 195.387 178.515 197.355V197.369C178.515 199.235 179.882 200.609 181.769 200.609C183.108 200.609 184.106 199.912 184.496 199.023H184.53C184.53 199.112 184.53 199.201 184.523 199.29C184.462 201.245 183.771 202.879 182.076 202.879C181.133 202.879 180.49 202.414 180.21 201.676L180.183 201.607H178.651L178.672 201.689C178.986 203.159 180.306 204.164 182.062 204.164C184.53 204.164 186 202.223 186 198.935V198.921C186 195.373 184.141 193.972 182.124 193.972ZM182.117 199.365C180.921 199.365 180.039 198.518 180.039 197.328V197.314C180.039 196.166 180.976 195.257 182.138 195.257C183.313 195.257 184.229 196.18 184.229 197.349V197.355C184.229 198.524 183.32 199.365 182.117 199.365Z" fill="#0F2552"/>
<path d="M204.351 204H211.098V202.708H206.401V202.646L208.644 200.445C210.414 198.695 210.94 197.896 210.94 196.768V196.754C210.94 195.161 209.587 193.972 207.693 193.972C205.766 193.972 204.269 195.25 204.269 197.014V197.055H205.718V197.014C205.731 196.016 206.559 195.236 207.714 195.236C208.712 195.236 209.423 195.906 209.43 196.843V196.856C209.43 197.622 209.136 198.142 207.823 199.454L204.351 202.947V204ZM216.047 204.164C218.398 204.164 219.813 202.202 219.813 199.071V199.058C219.813 195.927 218.398 193.972 216.047 193.972C213.688 193.972 212.28 195.927 212.28 199.058V199.071C212.28 202.202 213.688 204.164 216.047 204.164ZM216.047 202.886C214.639 202.886 213.825 201.437 213.825 199.071V199.058C213.825 196.692 214.639 195.257 216.047 195.257C217.448 195.257 218.269 196.692 218.269 199.058V199.071C218.269 201.437 217.448 202.886 216.047 202.886Z" fill="#0F2552"/>
<path d="M238.513 204H245.26V202.708H240.563V202.646L242.806 200.445C244.576 198.695 245.103 197.896 245.103 196.768V196.754C245.103 195.161 243.749 193.972 241.855 193.972C239.928 193.972 238.431 195.25 238.431 197.014V197.055H239.88V197.014C239.894 196.016 240.721 195.236 241.876 195.236C242.874 195.236 243.585 195.906 243.592 196.843V196.856C243.592 197.622 243.298 198.142 241.985 199.454L238.513 202.947V204ZM249.115 204H250.612V194.136H249.102L246.504 195.981V197.431L249.081 195.653H249.115V204Z" fill="#0F2552"/>
<path d="M39.6582 244H46.4053V242.708H41.709V242.646L43.9512 240.445C45.7217 238.695 46.248 237.896 46.248 236.768V236.754C46.248 235.161 44.8945 233.972 43.001 233.972C41.0732 233.972 39.5762 235.25 39.5762 237.014V237.055H41.0254V237.014C41.0391 236.016 41.8662 235.236 43.0215 235.236C44.0195 235.236 44.7305 235.906 44.7373 236.843V236.856C44.7373 237.622 44.4434 238.142 43.1309 239.454L39.6582 242.947V244ZM47.7656 244H54.5127V242.708H49.8164V242.646L52.0586 240.445C53.8291 238.695 54.3555 237.896 54.3555 236.768V236.754C54.3555 235.161 53.002 233.972 51.1084 233.972C49.1807 233.972 47.6836 235.25 47.6836 237.014V237.055H49.1328V237.014C49.1465 236.016 49.9736 235.236 51.1289 235.236C52.127 235.236 52.8379 235.906 52.8447 236.843V236.856C52.8447 237.622 52.5508 238.142 51.2383 239.454L47.7656 242.947V244Z" fill="#0F2552"/>
<path d="M72.4736 244H79.2207V242.708H74.5244V242.646L76.7666 240.445C78.5371 238.695 79.0635 237.896 79.0635 236.768V236.754C79.0635 235.161 77.71 233.972 75.8164 233.972C73.8887 233.972 72.3916 235.25 72.3916 237.014V237.055H73.8408V237.014C73.8545 236.016 74.6816 235.236 75.8369 235.236C76.835 235.236 77.5459 235.906 77.5527 236.843V236.856C77.5527 237.622 77.2588 238.142 75.9463 239.454L72.4736 242.947V244ZM84.0264 244.164C86.1182 244.164 87.6016 242.961 87.6016 241.272V241.259C87.6016 239.878 86.6309 239.003 85.1816 238.873V238.839C86.3848 238.586 87.2598 237.766 87.2598 236.542V236.528C87.2598 235.011 85.9746 233.972 84.0127 233.972C82.085 233.972 80.7725 235.059 80.6221 236.706L80.6152 236.774H82.0508L82.0576 236.713C82.1533 235.797 82.9189 235.223 84.0127 235.223C85.127 235.223 85.7695 235.776 85.7695 236.727V236.74C85.7695 237.656 85.0039 238.319 83.876 238.319H82.7207V239.509H83.917C85.2363 239.509 86.043 240.131 86.043 241.245V241.259C86.043 242.216 85.2295 242.886 84.0264 242.886C82.8027 242.886 81.9756 242.271 81.8799 241.396L81.873 241.32H80.4033L80.4102 241.409C80.5469 243.016 81.9209 244.164 84.0264 244.164Z" fill="#0F2552"/>
<path d="M105.515 244H112.262V242.708H107.565V242.646L109.808 240.445C111.578 238.695 112.104 237.896 112.104 236.768V236.754C112.104 235.161 110.751 233.972 108.857 233.972C106.93 233.972 105.433 235.25 105.433 237.014V237.055H106.882V237.014C106.896 236.016 107.723 235.236 108.878 235.236C109.876 235.236 110.587 235.906 110.594 236.843V236.856C110.594 237.622 110.3 238.142 108.987 239.454L105.515 242.947V244ZM118.024 244H119.494V242.038H120.854V240.753H119.494V234.136H117.279L113.089 240.705V242.038H118.024V244ZM114.511 240.773V240.732L117.997 235.346H118.038V240.773H114.511Z" fill="#0F2552"/>
<path d="M138.515 244H145.262V242.708H140.565V242.646L142.808 240.445C144.578 238.695 145.104 237.896 145.104 236.768V236.754C145.104 235.161 143.751 233.972 141.857 233.972C139.93 233.972 138.433 235.25 138.433 237.014V237.055H139.882V237.014C139.896 236.016 140.723 235.236 141.878 235.236C142.876 235.236 143.587 235.906 143.594 236.843V236.856C143.594 237.622 143.3 238.142 141.987 239.454L138.515 242.947V244ZM150.149 244.164C152.275 244.164 153.772 242.776 153.772 240.773V240.76C153.772 238.873 152.412 237.513 150.525 237.513C149.555 237.513 148.734 237.889 148.29 238.552H148.256L148.557 235.428H153.198V234.136H147.319L146.834 239.823H148.174C148.304 239.604 148.461 239.413 148.646 239.256C149.042 238.9 149.568 238.723 150.177 238.723C151.4 238.723 152.269 239.577 152.275 240.787V240.801C152.275 242.024 151.407 242.886 150.163 242.886C149.062 242.886 148.256 242.202 148.126 241.313L148.119 241.259H146.656L146.663 241.341C146.8 242.968 148.174 244.164 150.149 244.164Z" fill="#0F2552"/>
<path d="M171.31 244H178.057V242.708H173.36V242.646L175.603 240.445C177.373 238.695 177.899 237.896 177.899 236.768V236.754C177.899 235.161 176.546 233.972 174.652 233.972C172.725 233.972 171.228 235.25 171.228 237.014V237.055H172.677V237.014C172.69 236.016 173.518 235.236 174.673 235.236C175.671 235.236 176.382 235.906 176.389 236.843V236.856C176.389 237.622 176.095 238.142 174.782 239.454L171.31 242.947V244ZM183.115 244.164C185.193 244.164 186.718 242.749 186.718 240.78V240.767C186.718 238.9 185.357 237.526 183.471 237.526C182.131 237.526 181.133 238.224 180.743 239.112H180.709C180.709 239.023 180.709 238.935 180.716 238.846C180.777 236.891 181.468 235.257 183.163 235.257C184.106 235.257 184.749 235.722 185.029 236.46L185.05 236.528H186.588L186.567 236.446C186.253 234.977 184.934 233.972 183.177 233.972C180.709 233.972 179.239 235.913 179.239 239.201V239.215C179.239 242.763 181.099 244.164 183.115 244.164ZM181.01 240.787V240.78C181.01 239.611 181.919 238.771 183.115 238.771C184.318 238.771 185.193 239.618 185.193 240.808V240.821C185.193 241.97 184.264 242.879 183.095 242.879C181.926 242.879 181.01 241.956 181.01 240.787Z" fill="#0F2552"/>
<path d="M204.815 244H211.562V242.708H206.866V242.646L209.108 240.445C210.879 238.695 211.405 237.896 211.405 236.768V236.754C211.405 235.161 210.052 233.972 208.158 233.972C206.23 233.972 204.733 235.25 204.733 237.014V237.055H206.183V237.014C206.196 236.016 207.023 235.236 208.179 235.236C209.177 235.236 209.888 235.906 209.895 236.843V236.856C209.895 237.622 209.601 238.142 208.288 239.454L204.815 242.947V244ZM213.47 244H215.076L219.362 235.462V234.136H212.649V235.428H217.852V235.462L213.47 244Z" fill="#0F2552"/>
<path d="M237.392 244H244.139V242.708H239.442V242.646L241.685 240.445C243.455 238.695 243.981 237.896 243.981 236.768V236.754C243.981 235.161 242.628 233.972 240.734 233.972C238.807 233.972 237.31 235.25 237.31 237.014V237.055H238.759V237.014C238.772 236.016 239.6 235.236 240.755 235.236C241.753 235.236 242.464 235.906 242.471 236.843V236.856C242.471 237.622 242.177 238.142 240.864 239.454L237.392 242.947V244ZM249.054 244.164C251.241 244.164 252.779 242.995 252.779 241.327V241.313C252.779 240.069 251.891 239.085 250.605 238.805V238.771C251.706 238.456 252.424 237.636 252.424 236.59V236.576C252.424 235.072 251.016 233.972 249.054 233.972C247.092 233.972 245.69 235.072 245.69 236.576V236.59C245.69 237.636 246.408 238.456 247.509 238.771V238.805C246.224 239.085 245.328 240.069 245.328 241.313V241.327C245.328 242.995 246.873 244.164 249.054 244.164ZM249.054 238.258C247.96 238.258 247.208 237.622 247.208 236.727V236.713C247.208 235.811 247.96 235.182 249.054 235.182C250.147 235.182 250.906 235.811 250.906 236.713V236.727C250.906 237.622 250.154 238.258 249.054 238.258ZM249.054 242.94C247.796 242.94 246.9 242.223 246.9 241.225V241.211C246.9 240.206 247.789 239.481 249.054 239.481C250.318 239.481 251.207 240.206 251.207 241.211V241.225C251.207 242.223 250.312 242.94 249.054 242.94Z" fill="#0F2552"/>
<path d="M39.3027 284H46.0498V282.708H41.3535V282.646L43.5957 280.445C45.3662 278.695 45.8926 277.896 45.8926 276.768V276.754C45.8926 275.161 44.5391 273.972 42.6455 273.972C40.7178 273.972 39.2207 275.25 39.2207 277.014V277.055H40.6699V277.014C40.6836 276.016 41.5107 275.236 42.666 275.236C43.6641 275.236 44.375 275.906 44.3818 276.843V276.856C44.3818 277.622 44.0879 278.142 42.7754 279.454L39.3027 282.947V284ZM50.9854 273.972C48.9004 273.972 47.376 275.387 47.376 277.355V277.369C47.376 279.235 48.7432 280.609 50.6299 280.609C51.9697 280.609 52.9678 279.912 53.3574 279.023H53.3916C53.3916 279.112 53.3916 279.201 53.3848 279.29C53.3232 281.245 52.6328 282.879 50.9375 282.879C49.9941 282.879 49.3516 282.414 49.0713 281.676L49.0439 281.607H47.5127L47.5332 281.689C47.8477 283.159 49.167 284.164 50.9238 284.164C53.3916 284.164 54.8613 282.223 54.8613 278.935V278.921C54.8613 275.373 53.002 273.972 50.9854 273.972ZM50.9785 279.365C49.7822 279.365 48.9004 278.518 48.9004 277.328V277.314C48.9004 276.166 49.8369 275.257 50.999 275.257C52.1748 275.257 53.0908 276.18 53.0908 277.349V277.355C53.0908 278.524 52.1816 279.365 50.9785 279.365Z" fill="#0F2552"/>
<path d="M75.6113 284.164C77.7031 284.164 79.1865 282.961 79.1865 281.272V281.259C79.1865 279.878 78.2158 279.003 76.7666 278.873V278.839C77.9697 278.586 78.8447 277.766 78.8447 276.542V276.528C78.8447 275.011 77.5596 273.972 75.5977 273.972C73.6699 273.972 72.3574 275.059 72.207 276.706L72.2002 276.774H73.6357L73.6426 276.713C73.7383 275.797 74.5039 275.223 75.5977 275.223C76.7119 275.223 77.3545 275.776 77.3545 276.727V276.74C77.3545 277.656 76.5889 278.319 75.4609 278.319H74.3057V279.509H75.502C76.8213 279.509 77.6279 280.131 77.6279 281.245V281.259C77.6279 282.216 76.8145 282.886 75.6113 282.886C74.3877 282.886 73.5605 282.271 73.4648 281.396L73.458 281.32H71.9883L71.9951 281.409C72.1318 283.016 73.5059 284.164 75.6113 284.164ZM84.2314 284.164C86.583 284.164 87.998 282.202 87.998 279.071V279.058C87.998 275.927 86.583 273.972 84.2314 273.972C81.873 273.972 80.4648 275.927 80.4648 279.058V279.071C80.4648 282.202 81.873 284.164 84.2314 284.164ZM84.2314 282.886C82.8232 282.886 82.0098 281.437 82.0098 279.071V279.058C82.0098 276.692 82.8232 275.257 84.2314 275.257C85.6328 275.257 86.4531 276.692 86.4531 279.058V279.071C86.4531 281.437 85.6328 282.886 84.2314 282.886Z" fill="#0F2552"/>
<path d="M109.773 284.164C111.865 284.164 113.349 282.961 113.349 281.272V281.259C113.349 279.878 112.378 279.003 110.929 278.873V278.839C112.132 278.586 113.007 277.766 113.007 276.542V276.528C113.007 275.011 111.722 273.972 109.76 273.972C107.832 273.972 106.52 275.059 106.369 276.706L106.362 276.774H107.798L107.805 276.713C107.9 275.797 108.666 275.223 109.76 275.223C110.874 275.223 111.517 275.776 111.517 276.727V276.74C111.517 277.656 110.751 278.319 109.623 278.319H108.468V279.509H109.664C110.983 279.509 111.79 280.131 111.79 281.245V281.259C111.79 282.216 110.977 282.886 109.773 282.886C108.55 282.886 107.723 282.271 107.627 281.396L107.62 281.32H106.15L106.157 281.409C106.294 283.016 107.668 284.164 109.773 284.164ZM117.3 284H118.797V274.136H117.286L114.688 275.981V277.431L117.266 275.653H117.3V284Z" fill="#0F2552"/>
</g>
</g>
<defs>
<filter id="filter0_d_40_565" x="-7" y="0" width="322" height="340" filterUnits="userSpaceOnUse" color-interpolation-filters="sRGB">
<feFlood flood-opacity="0" result="BackgroundImageFix"/>
<feColorMatrix in="SourceAlpha" type="matrix" values="0 0 0 0 0 0 0 0 0 0 0 0 0 0 0 0 0 0 127 0" result="hardAlpha"/>
<feMorphology radius="10" operator="dilate" in="SourceAlpha" result="effect1_dropShadow_40_565"/>
<feOffset dx="8" dy="3"/>
<feGaussianBlur stdDeviation="11"/>
<feComposite in2="hardAlpha" operator="out"/>
<feColorMatrix type="matrix" values="0 0 0 0 0.5875 0 0 0 0 0.5875 0 0 0 0 0.5875 0 0 0 0.11 0"/>
<feBlend mode="normal" in2="BackgroundImageFix" result="effect1_dropShadow_40_565"/>
<feBlend mode="normal" in="SourceGraphic" in2="effect1_dropShadow_40_565" result="shape"/>
</filter>
<clipPath id="clip0_40_565">
<rect x="17" y="29" width="258" height="276" rx="16" fill="white"/>
</clipPath>
<clipPath id="clip1_40_565">
<rect x="36" y="107" width="24" height="24" rx="12" fill="white"/>
</clipPath>
</defs>
</svg>
