<svg width="28" height="28" viewBox="0 0 28 28" fill="none" xmlns="http://www.w3.org/2000/svg">
<path d="M14.156 15.014C14.065 15.001 13.948 15.001 13.844 15.014C11.556 14.936 9.73596 13.064 9.73596 10.763C9.73596 8.40996 11.634 6.49896 14 6.49896C16.353 6.49896 18.264 8.40996 18.264 10.763C18.251 13.064 16.444 14.936 14.156 15.014Z" stroke="#989EA6" stroke-width="1.21067" stroke-linecap="round" stroke-linejoin="round"/>
<path d="M22.762 23.5941C20.448 25.7131 17.38 27.0001 14 27.0001C10.62 27.0001 7.55198 25.7131 5.23798 23.5941C5.36798 22.3721 6.14798 21.1761 7.53898 20.2401C11.101 17.8741 16.925 17.8741 20.461 20.2401C21.852 21.1761 22.632 22.3721 22.762 23.5941Z" stroke="#989EA6" stroke-width="1.21067" stroke-linecap="round" stroke-linejoin="round"/>
<path d="M14 27C21.1796 27 27 21.1796 27 14C27 6.82029 21.1796 1 14 1C6.82029 1 1 6.82029 1 14C1 21.1796 6.82029 27 14 27Z" stroke="#989EA6" stroke-width="1.21067" stroke-linecap="round" stroke-linejoin="round"/>
</svg>
